M48
; DRILL file {KiCad 8.0.5} date 2024-11-11T15:58:13+0100
; FORMAT={-:-/ absolute / metric / decimal}
; #@! TF.CreationDate,2024-11-11T15:58:13+01:00
; #@! TF.GenerationSoftware,Kicad,Pcbnew,8.0.5
; #@! TF.FileFunction,Plated,1,4,PTH
FMAT,2
METRIC
; #@! TA.AperFunction,Plated,PTH,ViaDrill
T1C0.300
; #@! TA.AperFunction,Plated,PTH,ComponentDrill
T2C0.600
; #@! TA.AperFunction,Plated,PTH,ComponentDrill
T3C0.650
; #@! TA.AperFunction,Plated,PTH,ComponentDrill
T4C2.200
%
G90
G05
T1
X111.037Y-113.7
X111.093Y-75.468
X111.3Y-94.6
X111.4Y-56.5
X111.887Y-111.95
X112.192Y-73.768
X112.2Y-92.679
X112.4Y-54.7
X113.5Y-59.55
X113.55Y-117.25
X113.625Y-98.05
X114.4Y-79.95
X116.55Y-107.15
X116.6Y-50.0
X116.6Y-68.9
X116.6Y-88.1
X118.9Y-89.1
X118.95Y-108.25
X119.0Y-50.8
X119.007Y-70.0
X119.8Y-110.0
X119.85Y-90.9
X119.9Y-71.7
X120.0Y-52.9
X120.4Y-59.4
X120.65Y-116.1
X120.7Y-78.1
X120.756Y-132.68
X120.8Y-97.0
X121.0Y-56.575
X121.506Y-130.78
X121.6Y-47.8
X121.7Y-134.5
X123.65Y-49.85
X126.1Y-126.25
X127.8Y-49.7
X127.8Y-50.5
X128.55Y-127.15
X129.487Y-129.089
X130.132Y-94.7
X130.153Y-75.535
X130.188Y-113.733
X130.2Y-135.2
X130.55Y-56.5
X130.95Y-92.9
X131.037Y-111.882
X131.102Y-73.635
X131.2Y-58.35
X131.4Y-54.9
X132.25Y-43.55
X133.1Y-45.8
X135.6Y-50.2
X135.6Y-68.9
X135.6Y-88.1
X135.6Y-107.15
X135.8Y-43.2
X137.05Y-42.4
X138.0Y-89.1
X138.05Y-108.15
X138.062Y-51.137
X138.1Y-69.9
X138.95Y-52.85
X139.0Y-90.9
X139.05Y-71.8
X139.1Y-110.05
X139.15Y-40.55
X139.175Y-41.825
X139.2Y-44.3
X139.35Y-67.0
X139.4Y-59.0
X139.4Y-60.9
X139.5Y-97.0
X139.65Y-116.15
X139.7Y-77.9
X139.85Y-56.525
X140.15Y-113.7
X140.325Y-94.6
X140.45Y-50.15
X140.475Y-75.55
X141.975Y-44.225
X142.025Y-47.325
X142.2Y-52.05
X142.6Y-43.8
X142.7Y-45.15
X142.725Y-49.525
X143.875Y-40.775
X146.475Y-40.751
X147.225Y-40.725
X147.225Y-43.525
X147.975Y-47.275
X148.969Y-94.65
X149.137Y-113.682
X149.237Y-132.713
X149.475Y-40.725
X149.562Y-75.531
X149.7Y-56.5
X149.75Y-115.45
X149.925Y-77.3
X150.0Y-92.8
X150.025Y-96.35
X150.137Y-111.733
X150.188Y-130.912
X150.275Y-58.275
X150.362Y-73.531
X150.387Y-54.932
X150.775Y-41.775
X150.825Y-68.05
X150.875Y-69.05
X151.313Y-47.119
X151.525Y-43.625
X151.9Y-61.05
X152.5Y-49.45
X152.5Y-50.5
X152.925Y-47.725
X152.975Y-46.125
X154.65Y-107.0
X154.65Y-126.05
X154.7Y-49.9
X154.7Y-68.9
X154.7Y-88.1
X156.25Y-49.95
X156.35Y-46.3
X157.0Y-51.0
X157.1Y-69.8
X157.1Y-88.9
X157.15Y-127.2
X157.2Y-108.2
X157.375Y-93.6
X157.55Y-112.3
X157.9Y-52.8
X157.9Y-90.9
X158.05Y-71.8
X158.1Y-110.05
X158.15Y-129.1
X158.6Y-77.9
X158.7Y-96.4
X158.75Y-115.45
X158.8Y-58.3
X158.85Y-134.45
X159.4Y-56.5
X160.6Y-76.975
X160.8Y-43.95
X165.55Y-41.3
X168.387Y-123.3
X168.487Y-56.532
X168.537Y-85.203
X168.85Y-58.275
X169.025Y-86.85
X169.287Y-121.5
X169.338Y-83.302
X169.387Y-54.732
X173.7Y-50.1
X173.7Y-78.3
X173.7Y-116.55
X175.7Y-83.2
X176.1Y-79.3
X176.2Y-51.1
X176.2Y-117.8
X176.6Y-121.8
X177.05Y-81.3
X177.05Y-119.5
X177.25Y-52.8
X177.45Y-54.65
X177.7Y-86.8
X177.9Y-58.3
X178.2Y-125.0
X179.7Y-48.25
X182.4Y-56.6
T3
X169.39Y-41.65
X170.66Y-41.65
X171.93Y-41.65
X173.2Y-41.65
T4
X126.0Y-90.9
X164.15Y-119.05
X164.2Y-62.15
T2
X121.38Y-40.625G85X121.38Y-41.225
G05
X121.38Y-44.555G85X121.38Y-45.655
G05
X130.02Y-40.625G85X130.02Y-41.225
G05
X130.02Y-44.555G85X130.02Y-45.655
G05
M30
