G04 #@! TF.GenerationSoftware,KiCad,Pcbnew,8.0.5*
G04 #@! TF.CreationDate,2024-11-11T15:57:41+01:00*
G04 #@! TF.ProjectId,Klawiatura analogowa,4b6c6177-6961-4747-9572-6120616e616c,rev?*
G04 #@! TF.SameCoordinates,Original*
G04 #@! TF.FileFunction,Profile,NP*
%FSLAX46Y46*%
G04 Gerber Fmt 4.6, Leading zero omitted, Abs format (unit mm)*
G04 Created by KiCad (PCBNEW 8.0.5) date 2024-11-11 15:57:41*
%MOMM*%
%LPD*%
G01*
G04 APERTURE LIST*
G04 #@! TA.AperFunction,Profile*
%ADD10C,0.050000*%
G04 #@! TD*
G04 APERTURE END LIST*
D10*
X105350000Y-39662500D02*
X184850000Y-39662500D01*
X184850000Y-139637500D01*
X105350000Y-139637500D01*
X105350000Y-39662500D01*
X114650000Y-55565000D02*
X118450000Y-55565000D01*
X118450000Y-59290000D01*
X114650000Y-59290000D01*
X114650000Y-55565000D01*
X152757500Y-55554500D02*
X156557500Y-55554500D01*
X156557500Y-59279500D01*
X152757500Y-59279500D01*
X152757500Y-55554500D01*
X114657500Y-112704500D02*
X118457500Y-112704500D01*
X118457500Y-116429500D01*
X114657500Y-116429500D01*
X114657500Y-112704500D01*
X152757500Y-112704500D02*
X156557500Y-112704500D01*
X156557500Y-116429500D01*
X152757500Y-116429500D01*
X152757500Y-112704500D01*
X152757500Y-93654500D02*
X156557500Y-93654500D01*
X156557500Y-97379500D01*
X152757500Y-97379500D01*
X152757500Y-93654500D01*
X133707500Y-55554500D02*
X137507500Y-55554500D01*
X137507500Y-59279500D01*
X133707500Y-59279500D01*
X133707500Y-55554500D01*
X133717500Y-93664500D02*
X137517500Y-93664500D01*
X137517500Y-97389500D01*
X133717500Y-97389500D01*
X133717500Y-93664500D01*
X124170000Y-131743250D02*
X127970000Y-131743250D01*
X127970000Y-135468250D01*
X124170000Y-135468250D01*
X124170000Y-131743250D01*
X171807500Y-122229500D02*
X175607500Y-122229500D01*
X175607500Y-125954500D01*
X171807500Y-125954500D01*
X171807500Y-122229500D01*
X133707500Y-74604500D02*
X137507500Y-74604500D01*
X137507500Y-78329500D01*
X133707500Y-78329500D01*
X133707500Y-74604500D01*
X171807500Y-55554500D02*
X175607500Y-55554500D01*
X175607500Y-59279500D01*
X171807500Y-59279500D01*
X171807500Y-55554500D01*
X152782500Y-74606500D02*
X156582500Y-74606500D01*
X156582500Y-78331500D01*
X152782500Y-78331500D01*
X152782500Y-74606500D01*
X114680000Y-74625000D02*
X118480000Y-74625000D01*
X118480000Y-78350000D01*
X114680000Y-78350000D01*
X114680000Y-74625000D01*
X152757500Y-131754500D02*
X156557500Y-131754500D01*
X156557500Y-135479500D01*
X152757500Y-135479500D01*
X152757500Y-131754500D01*
X171807500Y-84129500D02*
X175607500Y-84129500D01*
X175607500Y-87854500D01*
X171807500Y-87854500D01*
X171807500Y-84129500D01*
X133707500Y-112704500D02*
X137507500Y-112704500D01*
X137507500Y-116429500D01*
X133707500Y-116429500D01*
X133707500Y-112704500D01*
X114657500Y-93654500D02*
X118457500Y-93654500D01*
X118457500Y-97379500D01*
X114657500Y-97379500D01*
X114657500Y-93654500D01*
M02*
