%TF.GenerationSoftware,KiCad,Pcbnew,8.0.5*%
%TF.CreationDate,2024-11-11T15:58:18+01:00*%
%TF.ProjectId,Klawiatura analogowa,4b6c6177-6961-4747-9572-6120616e616c,rev?*%
%TF.SameCoordinates,Original*%
%TF.FileFunction,Drillmap*%
%TF.FilePolarity,Positive*%
%FSLAX45Y45*%
G04 Gerber Fmt 4.5, Leading zero omitted, Abs format (unit mm)*
G04 Created by KiCad (PCBNEW 8.0.5) date 2024-11-11 15:58:18*
%MOMM*%
%LPD*%
G01*
G04 APERTURE LIST*
%ADD10C,0.050000*%
%ADD11C,0.200000*%
%ADD12C,0.100000*%
%ADD13C,0.170180*%
%ADD14C,0.304800*%
%ADD15C,0.398780*%
G04 APERTURE END LIST*
D10*
X10535000Y-3966250D02*
X18485000Y-3966250D01*
X18485000Y-13963750D01*
X10535000Y-13963750D01*
X10535000Y-3966250D01*
X11465000Y-5556500D02*
X11845000Y-5556500D01*
X11845000Y-5929000D01*
X11465000Y-5929000D01*
X11465000Y-5556500D01*
X15275750Y-5555450D02*
X15655750Y-5555450D01*
X15655750Y-5927950D01*
X15275750Y-5927950D01*
X15275750Y-5555450D01*
X11465750Y-11270450D02*
X11845750Y-11270450D01*
X11845750Y-11642950D01*
X11465750Y-11642950D01*
X11465750Y-11270450D01*
X15275750Y-11270450D02*
X15655750Y-11270450D01*
X15655750Y-11642950D01*
X15275750Y-11642950D01*
X15275750Y-11270450D01*
X15275750Y-9365450D02*
X15655750Y-9365450D01*
X15655750Y-9737950D01*
X15275750Y-9737950D01*
X15275750Y-9365450D01*
X13370750Y-5555450D02*
X13750750Y-5555450D01*
X13750750Y-5927950D01*
X13370750Y-5927950D01*
X13370750Y-5555450D01*
X13371750Y-9366450D02*
X13751750Y-9366450D01*
X13751750Y-9738950D01*
X13371750Y-9738950D01*
X13371750Y-9366450D01*
X12417000Y-13174325D02*
X12797000Y-13174325D01*
X12797000Y-13546825D01*
X12417000Y-13546825D01*
X12417000Y-13174325D01*
X17180750Y-12222950D02*
X17560750Y-12222950D01*
X17560750Y-12595450D01*
X17180750Y-12595450D01*
X17180750Y-12222950D01*
X13370750Y-7460450D02*
X13750750Y-7460450D01*
X13750750Y-7832950D01*
X13370750Y-7832950D01*
X13370750Y-7460450D01*
X17180750Y-5555450D02*
X17560750Y-5555450D01*
X17560750Y-5927950D01*
X17180750Y-5927950D01*
X17180750Y-5555450D01*
X15278250Y-7460650D02*
X15658250Y-7460650D01*
X15658250Y-7833150D01*
X15278250Y-7833150D01*
X15278250Y-7460650D01*
X11468000Y-7462500D02*
X11848000Y-7462500D01*
X11848000Y-7835000D01*
X11468000Y-7835000D01*
X11468000Y-7462500D01*
X15275750Y-13175450D02*
X15655750Y-13175450D01*
X15655750Y-13547950D01*
X15275750Y-13547950D01*
X15275750Y-13175450D01*
X17180750Y-8412950D02*
X17560750Y-8412950D01*
X17560750Y-8785450D01*
X17180750Y-8785450D01*
X17180750Y-8412950D01*
X13370750Y-11270450D02*
X13750750Y-11270450D01*
X13750750Y-11642950D01*
X13370750Y-11642950D01*
X13370750Y-11270450D01*
X11465750Y-9365450D02*
X11845750Y-9365450D01*
X11845750Y-9737950D01*
X11465750Y-9737950D01*
X11465750Y-9365450D01*
D11*
D12*
X12248500Y-4425000D02*
X12313500Y-4490000D01*
X12313500Y-4425000D02*
X12248500Y-4490000D01*
X12826500Y-4425000D02*
X12891500Y-4490000D01*
X12891500Y-4425000D02*
X12826500Y-4490000D01*
D13*
X11230215Y-9047125D02*
G75*
G02*
X11060035Y-9047125I-85090J0D01*
G01*
X11060035Y-9047125D02*
G75*
G02*
X11230215Y-9047125I85090J0D01*
G01*
X11232090Y-5239000D02*
G75*
G02*
X11061910Y-5239000I-85090J0D01*
G01*
X11061910Y-5239000D02*
G75*
G02*
X11232090Y-5239000I85090J0D01*
G01*
X11232840Y-10952950D02*
G75*
G02*
X11062660Y-10952950I-85090J0D01*
G01*
X11062660Y-10952950D02*
G75*
G02*
X11232840Y-10952950I85090J0D01*
G01*
X11233090Y-7145000D02*
G75*
G02*
X11062910Y-7145000I-85090J0D01*
G01*
X11062910Y-7145000D02*
G75*
G02*
X11233090Y-7145000I85090J0D01*
G01*
X12184090Y-12860000D02*
G75*
G02*
X12013910Y-12860000I-85090J0D01*
G01*
X12013910Y-12860000D02*
G75*
G02*
X12184090Y-12860000I85090J0D01*
G01*
X12246215Y-9047125D02*
G75*
G02*
X12076035Y-9047125I-85090J0D01*
G01*
X12076035Y-9047125D02*
G75*
G02*
X12246215Y-9047125I85090J0D01*
G01*
X12248090Y-5239000D02*
G75*
G02*
X12077910Y-5239000I-85090J0D01*
G01*
X12077910Y-5239000D02*
G75*
G02*
X12248090Y-5239000I85090J0D01*
G01*
X12248840Y-10952950D02*
G75*
G02*
X12078660Y-10952950I-85090J0D01*
G01*
X12078660Y-10952950D02*
G75*
G02*
X12248840Y-10952950I85090J0D01*
G01*
X12249090Y-7145000D02*
G75*
G02*
X12078910Y-7145000I-85090J0D01*
G01*
X12078910Y-7145000D02*
G75*
G02*
X12249090Y-7145000I85090J0D01*
G01*
X13137840Y-5237950D02*
G75*
G02*
X12967660Y-5237950I-85090J0D01*
G01*
X12967660Y-5237950D02*
G75*
G02*
X13137840Y-5237950I85090J0D01*
G01*
X13137840Y-9047950D02*
G75*
G02*
X12967660Y-9047950I-85090J0D01*
G01*
X12967660Y-9047950D02*
G75*
G02*
X13137840Y-9047950I85090J0D01*
G01*
X13137840Y-10952950D02*
G75*
G02*
X12967660Y-10952950I-85090J0D01*
G01*
X12967660Y-10952950D02*
G75*
G02*
X13137840Y-10952950I85090J0D01*
G01*
X13138840Y-7141200D02*
G75*
G02*
X12968660Y-7141200I-85090J0D01*
G01*
X12968660Y-7141200D02*
G75*
G02*
X13138840Y-7141200I85090J0D01*
G01*
X13200090Y-12860000D02*
G75*
G02*
X13029910Y-12860000I-85090J0D01*
G01*
X13029910Y-12860000D02*
G75*
G02*
X13200090Y-12860000I85090J0D01*
G01*
X14153840Y-5237950D02*
G75*
G02*
X13983660Y-5237950I-85090J0D01*
G01*
X13983660Y-5237950D02*
G75*
G02*
X14153840Y-5237950I85090J0D01*
G01*
X14153840Y-9047950D02*
G75*
G02*
X13983660Y-9047950I-85090J0D01*
G01*
X13983660Y-9047950D02*
G75*
G02*
X14153840Y-9047950I85090J0D01*
G01*
X14153840Y-10952950D02*
G75*
G02*
X13983660Y-10952950I-85090J0D01*
G01*
X13983660Y-10952950D02*
G75*
G02*
X14153840Y-10952950I85090J0D01*
G01*
X14154840Y-7141200D02*
G75*
G02*
X13984660Y-7141200I-85090J0D01*
G01*
X13984660Y-7141200D02*
G75*
G02*
X14154840Y-7141200I85090J0D01*
G01*
X15042840Y-5237950D02*
G75*
G02*
X14872660Y-5237950I-85090J0D01*
G01*
X14872660Y-5237950D02*
G75*
G02*
X15042840Y-5237950I85090J0D01*
G01*
X15042840Y-7142950D02*
G75*
G02*
X14872660Y-7142950I-85090J0D01*
G01*
X14872660Y-7142950D02*
G75*
G02*
X15042840Y-7142950I85090J0D01*
G01*
X15042840Y-10952950D02*
G75*
G02*
X14872660Y-10952950I-85090J0D01*
G01*
X14872660Y-10952950D02*
G75*
G02*
X15042840Y-10952950I85090J0D01*
G01*
X15042840Y-12857950D02*
G75*
G02*
X14872660Y-12857950I-85090J0D01*
G01*
X14872660Y-12857950D02*
G75*
G02*
X15042840Y-12857950I85090J0D01*
G01*
X15043215Y-9045700D02*
G75*
G02*
X14873035Y-9045700I-85090J0D01*
G01*
X14873035Y-9045700D02*
G75*
G02*
X15043215Y-9045700I85090J0D01*
G01*
X16058840Y-5237950D02*
G75*
G02*
X15888660Y-5237950I-85090J0D01*
G01*
X15888660Y-5237950D02*
G75*
G02*
X16058840Y-5237950I85090J0D01*
G01*
X16058840Y-7142950D02*
G75*
G02*
X15888660Y-7142950I-85090J0D01*
G01*
X15888660Y-7142950D02*
G75*
G02*
X16058840Y-7142950I85090J0D01*
G01*
X16058840Y-10952950D02*
G75*
G02*
X15888660Y-10952950I-85090J0D01*
G01*
X15888660Y-10952950D02*
G75*
G02*
X16058840Y-10952950I85090J0D01*
G01*
X16058840Y-12857950D02*
G75*
G02*
X15888660Y-12857950I-85090J0D01*
G01*
X15888660Y-12857950D02*
G75*
G02*
X16058840Y-12857950I85090J0D01*
G01*
X16059215Y-9045700D02*
G75*
G02*
X15889035Y-9045700I-85090J0D01*
G01*
X15889035Y-9045700D02*
G75*
G02*
X16059215Y-9045700I85090J0D01*
G01*
X16947840Y-5237950D02*
G75*
G02*
X16777660Y-5237950I-85090J0D01*
G01*
X16777660Y-5237950D02*
G75*
G02*
X16947840Y-5237950I85090J0D01*
G01*
X16947840Y-8095450D02*
G75*
G02*
X16777660Y-8095450I-85090J0D01*
G01*
X16777660Y-8095450D02*
G75*
G02*
X16947840Y-8095450I85090J0D01*
G01*
X16947840Y-11905450D02*
G75*
G02*
X16777660Y-11905450I-85090J0D01*
G01*
X16777660Y-11905450D02*
G75*
G02*
X16947840Y-11905450I85090J0D01*
G01*
X17963840Y-5237950D02*
G75*
G02*
X17793660Y-5237950I-85090J0D01*
G01*
X17793660Y-5237950D02*
G75*
G02*
X17963840Y-5237950I85090J0D01*
G01*
X17963840Y-8095450D02*
G75*
G02*
X17793660Y-8095450I-85090J0D01*
G01*
X17793660Y-8095450D02*
G75*
G02*
X17963840Y-8095450I85090J0D01*
G01*
X17963840Y-11905450D02*
G75*
G02*
X17793660Y-11905450I-85090J0D01*
G01*
X17793660Y-11905450D02*
G75*
G02*
X17963840Y-11905450I85090J0D01*
G01*
D14*
X11413200Y-12009100D02*
X11413200Y-12313900D01*
X11260800Y-12161500D02*
X11565600Y-12161500D01*
X13800800Y-12009100D02*
X13800800Y-12313900D01*
X13648400Y-12161500D02*
X13953200Y-12161500D01*
X16672250Y-6749250D02*
X16672250Y-7054050D01*
X16519850Y-6901650D02*
X16824650Y-6901650D01*
X16672250Y-9136850D02*
X16672250Y-9441650D01*
X16519850Y-9289250D02*
X16824650Y-9289250D01*
X16672250Y-10559250D02*
X16672250Y-10864050D01*
X16519850Y-10711650D02*
X16824650Y-10711650D01*
X16672250Y-12946850D02*
X16672250Y-13251650D01*
X16519850Y-13099250D02*
X16824650Y-13099250D01*
D15*
X11554191Y-13826491D02*
X11554191Y-13544509D01*
X11272209Y-13544509D01*
X11272209Y-13826491D01*
X11554191Y-13826491D01*
X13941791Y-13826491D02*
X13941791Y-13544509D01*
X13659809Y-13544509D01*
X13659809Y-13826491D01*
X13941791Y-13826491D01*
X18337241Y-7042641D02*
X18337241Y-6760659D01*
X18055259Y-6760659D01*
X18055259Y-7042641D01*
X18337241Y-7042641D01*
X18337241Y-9430241D02*
X18337241Y-9148259D01*
X18055259Y-9148259D01*
X18055259Y-9430241D01*
X18337241Y-9430241D01*
X18337241Y-10852641D02*
X18337241Y-10570659D01*
X18055259Y-10570659D01*
X18055259Y-10852641D01*
X18337241Y-10852641D01*
X18337241Y-13240241D02*
X18337241Y-12958259D01*
X18055259Y-12958259D01*
X18055259Y-13240241D01*
X18337241Y-13240241D01*
D11*
X10793277Y-14277734D02*
X10793277Y-14077734D01*
X10793277Y-14077734D02*
X10840896Y-14077734D01*
X10840896Y-14077734D02*
X10869467Y-14087258D01*
X10869467Y-14087258D02*
X10888515Y-14106305D01*
X10888515Y-14106305D02*
X10898039Y-14125353D01*
X10898039Y-14125353D02*
X10907563Y-14163448D01*
X10907563Y-14163448D02*
X10907563Y-14192019D01*
X10907563Y-14192019D02*
X10898039Y-14230115D01*
X10898039Y-14230115D02*
X10888515Y-14249162D01*
X10888515Y-14249162D02*
X10869467Y-14268210D01*
X10869467Y-14268210D02*
X10840896Y-14277734D01*
X10840896Y-14277734D02*
X10793277Y-14277734D01*
X10993277Y-14277734D02*
X10993277Y-14144400D01*
X10993277Y-14182496D02*
X11002801Y-14163448D01*
X11002801Y-14163448D02*
X11012324Y-14153924D01*
X11012324Y-14153924D02*
X11031372Y-14144400D01*
X11031372Y-14144400D02*
X11050420Y-14144400D01*
X11117086Y-14277734D02*
X11117086Y-14144400D01*
X11117086Y-14077734D02*
X11107563Y-14087258D01*
X11107563Y-14087258D02*
X11117086Y-14096781D01*
X11117086Y-14096781D02*
X11126610Y-14087258D01*
X11126610Y-14087258D02*
X11117086Y-14077734D01*
X11117086Y-14077734D02*
X11117086Y-14096781D01*
X11240896Y-14277734D02*
X11221848Y-14268210D01*
X11221848Y-14268210D02*
X11212324Y-14249162D01*
X11212324Y-14249162D02*
X11212324Y-14077734D01*
X11345658Y-14277734D02*
X11326610Y-14268210D01*
X11326610Y-14268210D02*
X11317086Y-14249162D01*
X11317086Y-14249162D02*
X11317086Y-14077734D01*
X11574229Y-14277734D02*
X11574229Y-14077734D01*
X11574229Y-14077734D02*
X11640896Y-14220591D01*
X11640896Y-14220591D02*
X11707562Y-14077734D01*
X11707562Y-14077734D02*
X11707562Y-14277734D01*
X11888515Y-14277734D02*
X11888515Y-14172972D01*
X11888515Y-14172972D02*
X11878991Y-14153924D01*
X11878991Y-14153924D02*
X11859943Y-14144400D01*
X11859943Y-14144400D02*
X11821848Y-14144400D01*
X11821848Y-14144400D02*
X11802801Y-14153924D01*
X11888515Y-14268210D02*
X11869467Y-14277734D01*
X11869467Y-14277734D02*
X11821848Y-14277734D01*
X11821848Y-14277734D02*
X11802801Y-14268210D01*
X11802801Y-14268210D02*
X11793277Y-14249162D01*
X11793277Y-14249162D02*
X11793277Y-14230115D01*
X11793277Y-14230115D02*
X11802801Y-14211067D01*
X11802801Y-14211067D02*
X11821848Y-14201543D01*
X11821848Y-14201543D02*
X11869467Y-14201543D01*
X11869467Y-14201543D02*
X11888515Y-14192019D01*
X11983753Y-14144400D02*
X11983753Y-14344400D01*
X11983753Y-14153924D02*
X12002801Y-14144400D01*
X12002801Y-14144400D02*
X12040896Y-14144400D01*
X12040896Y-14144400D02*
X12059943Y-14153924D01*
X12059943Y-14153924D02*
X12069467Y-14163448D01*
X12069467Y-14163448D02*
X12078991Y-14182496D01*
X12078991Y-14182496D02*
X12078991Y-14239638D01*
X12078991Y-14239638D02*
X12069467Y-14258686D01*
X12069467Y-14258686D02*
X12059943Y-14268210D01*
X12059943Y-14268210D02*
X12040896Y-14277734D01*
X12040896Y-14277734D02*
X12002801Y-14277734D01*
X12002801Y-14277734D02*
X11983753Y-14268210D01*
X12164705Y-14258686D02*
X12174229Y-14268210D01*
X12174229Y-14268210D02*
X12164705Y-14277734D01*
X12164705Y-14277734D02*
X12155182Y-14268210D01*
X12155182Y-14268210D02*
X12164705Y-14258686D01*
X12164705Y-14258686D02*
X12164705Y-14277734D01*
X12164705Y-14153924D02*
X12174229Y-14163448D01*
X12174229Y-14163448D02*
X12164705Y-14172972D01*
X12164705Y-14172972D02*
X12155182Y-14163448D01*
X12155182Y-14163448D02*
X12164705Y-14153924D01*
X12164705Y-14153924D02*
X12164705Y-14172972D01*
D12*
X10467500Y-14573750D02*
X10532500Y-14638750D01*
X10532500Y-14573750D02*
X10467500Y-14638750D01*
D11*
X10831372Y-14497734D02*
X10850420Y-14497734D01*
X10850420Y-14497734D02*
X10869467Y-14507258D01*
X10869467Y-14507258D02*
X10878991Y-14516781D01*
X10878991Y-14516781D02*
X10888515Y-14535829D01*
X10888515Y-14535829D02*
X10898039Y-14573924D01*
X10898039Y-14573924D02*
X10898039Y-14621543D01*
X10898039Y-14621543D02*
X10888515Y-14659638D01*
X10888515Y-14659638D02*
X10878991Y-14678686D01*
X10878991Y-14678686D02*
X10869467Y-14688210D01*
X10869467Y-14688210D02*
X10850420Y-14697734D01*
X10850420Y-14697734D02*
X10831372Y-14697734D01*
X10831372Y-14697734D02*
X10812324Y-14688210D01*
X10812324Y-14688210D02*
X10802801Y-14678686D01*
X10802801Y-14678686D02*
X10793277Y-14659638D01*
X10793277Y-14659638D02*
X10783753Y-14621543D01*
X10783753Y-14621543D02*
X10783753Y-14573924D01*
X10783753Y-14573924D02*
X10793277Y-14535829D01*
X10793277Y-14535829D02*
X10802801Y-14516781D01*
X10802801Y-14516781D02*
X10812324Y-14507258D01*
X10812324Y-14507258D02*
X10831372Y-14497734D01*
X10983753Y-14678686D02*
X10993277Y-14688210D01*
X10993277Y-14688210D02*
X10983753Y-14697734D01*
X10983753Y-14697734D02*
X10974229Y-14688210D01*
X10974229Y-14688210D02*
X10983753Y-14678686D01*
X10983753Y-14678686D02*
X10983753Y-14697734D01*
X11164705Y-14497734D02*
X11126610Y-14497734D01*
X11126610Y-14497734D02*
X11107563Y-14507258D01*
X11107563Y-14507258D02*
X11098039Y-14516781D01*
X11098039Y-14516781D02*
X11078991Y-14545353D01*
X11078991Y-14545353D02*
X11069467Y-14583448D01*
X11069467Y-14583448D02*
X11069467Y-14659638D01*
X11069467Y-14659638D02*
X11078991Y-14678686D01*
X11078991Y-14678686D02*
X11088515Y-14688210D01*
X11088515Y-14688210D02*
X11107563Y-14697734D01*
X11107563Y-14697734D02*
X11145658Y-14697734D01*
X11145658Y-14697734D02*
X11164705Y-14688210D01*
X11164705Y-14688210D02*
X11174229Y-14678686D01*
X11174229Y-14678686D02*
X11183753Y-14659638D01*
X11183753Y-14659638D02*
X11183753Y-14612019D01*
X11183753Y-14612019D02*
X11174229Y-14592972D01*
X11174229Y-14592972D02*
X11164705Y-14583448D01*
X11164705Y-14583448D02*
X11145658Y-14573924D01*
X11145658Y-14573924D02*
X11107563Y-14573924D01*
X11107563Y-14573924D02*
X11088515Y-14583448D01*
X11088515Y-14583448D02*
X11078991Y-14592972D01*
X11078991Y-14592972D02*
X11069467Y-14612019D01*
X11364705Y-14497734D02*
X11269467Y-14497734D01*
X11269467Y-14497734D02*
X11259943Y-14592972D01*
X11259943Y-14592972D02*
X11269467Y-14583448D01*
X11269467Y-14583448D02*
X11288515Y-14573924D01*
X11288515Y-14573924D02*
X11336134Y-14573924D01*
X11336134Y-14573924D02*
X11355182Y-14583448D01*
X11355182Y-14583448D02*
X11364705Y-14592972D01*
X11364705Y-14592972D02*
X11374229Y-14612019D01*
X11374229Y-14612019D02*
X11374229Y-14659638D01*
X11374229Y-14659638D02*
X11364705Y-14678686D01*
X11364705Y-14678686D02*
X11355182Y-14688210D01*
X11355182Y-14688210D02*
X11336134Y-14697734D01*
X11336134Y-14697734D02*
X11288515Y-14697734D01*
X11288515Y-14697734D02*
X11269467Y-14688210D01*
X11269467Y-14688210D02*
X11259943Y-14678686D01*
X11498039Y-14497734D02*
X11517086Y-14497734D01*
X11517086Y-14497734D02*
X11536134Y-14507258D01*
X11536134Y-14507258D02*
X11545658Y-14516781D01*
X11545658Y-14516781D02*
X11555182Y-14535829D01*
X11555182Y-14535829D02*
X11564705Y-14573924D01*
X11564705Y-14573924D02*
X11564705Y-14621543D01*
X11564705Y-14621543D02*
X11555182Y-14659638D01*
X11555182Y-14659638D02*
X11545658Y-14678686D01*
X11545658Y-14678686D02*
X11536134Y-14688210D01*
X11536134Y-14688210D02*
X11517086Y-14697734D01*
X11517086Y-14697734D02*
X11498039Y-14697734D01*
X11498039Y-14697734D02*
X11478991Y-14688210D01*
X11478991Y-14688210D02*
X11469467Y-14678686D01*
X11469467Y-14678686D02*
X11459943Y-14659638D01*
X11459943Y-14659638D02*
X11450420Y-14621543D01*
X11450420Y-14621543D02*
X11450420Y-14573924D01*
X11450420Y-14573924D02*
X11459943Y-14535829D01*
X11459943Y-14535829D02*
X11469467Y-14516781D01*
X11469467Y-14516781D02*
X11478991Y-14507258D01*
X11478991Y-14507258D02*
X11498039Y-14497734D01*
X11650420Y-14697734D02*
X11650420Y-14564400D01*
X11650420Y-14583448D02*
X11659943Y-14573924D01*
X11659943Y-14573924D02*
X11678991Y-14564400D01*
X11678991Y-14564400D02*
X11707563Y-14564400D01*
X11707563Y-14564400D02*
X11726610Y-14573924D01*
X11726610Y-14573924D02*
X11736134Y-14592972D01*
X11736134Y-14592972D02*
X11736134Y-14697734D01*
X11736134Y-14592972D02*
X11745658Y-14573924D01*
X11745658Y-14573924D02*
X11764705Y-14564400D01*
X11764705Y-14564400D02*
X11793277Y-14564400D01*
X11793277Y-14564400D02*
X11812324Y-14573924D01*
X11812324Y-14573924D02*
X11821848Y-14592972D01*
X11821848Y-14592972D02*
X11821848Y-14697734D01*
X11917086Y-14697734D02*
X11917086Y-14564400D01*
X11917086Y-14583448D02*
X11926610Y-14573924D01*
X11926610Y-14573924D02*
X11945658Y-14564400D01*
X11945658Y-14564400D02*
X11974229Y-14564400D01*
X11974229Y-14564400D02*
X11993277Y-14573924D01*
X11993277Y-14573924D02*
X12002801Y-14592972D01*
X12002801Y-14592972D02*
X12002801Y-14697734D01*
X12002801Y-14592972D02*
X12012324Y-14573924D01*
X12012324Y-14573924D02*
X12031372Y-14564400D01*
X12031372Y-14564400D02*
X12059943Y-14564400D01*
X12059943Y-14564400D02*
X12078991Y-14573924D01*
X12078991Y-14573924D02*
X12088515Y-14592972D01*
X12088515Y-14592972D02*
X12088515Y-14697734D01*
X12478991Y-14488210D02*
X12307563Y-14745353D01*
X12736134Y-14497734D02*
X12755182Y-14497734D01*
X12755182Y-14497734D02*
X12774229Y-14507258D01*
X12774229Y-14507258D02*
X12783753Y-14516781D01*
X12783753Y-14516781D02*
X12793277Y-14535829D01*
X12793277Y-14535829D02*
X12802801Y-14573924D01*
X12802801Y-14573924D02*
X12802801Y-14621543D01*
X12802801Y-14621543D02*
X12793277Y-14659638D01*
X12793277Y-14659638D02*
X12783753Y-14678686D01*
X12783753Y-14678686D02*
X12774229Y-14688210D01*
X12774229Y-14688210D02*
X12755182Y-14697734D01*
X12755182Y-14697734D02*
X12736134Y-14697734D01*
X12736134Y-14697734D02*
X12717086Y-14688210D01*
X12717086Y-14688210D02*
X12707563Y-14678686D01*
X12707563Y-14678686D02*
X12698039Y-14659638D01*
X12698039Y-14659638D02*
X12688515Y-14621543D01*
X12688515Y-14621543D02*
X12688515Y-14573924D01*
X12688515Y-14573924D02*
X12698039Y-14535829D01*
X12698039Y-14535829D02*
X12707563Y-14516781D01*
X12707563Y-14516781D02*
X12717086Y-14507258D01*
X12717086Y-14507258D02*
X12736134Y-14497734D01*
X12888515Y-14678686D02*
X12898039Y-14688210D01*
X12898039Y-14688210D02*
X12888515Y-14697734D01*
X12888515Y-14697734D02*
X12878991Y-14688210D01*
X12878991Y-14688210D02*
X12888515Y-14678686D01*
X12888515Y-14678686D02*
X12888515Y-14697734D01*
X13021848Y-14497734D02*
X13040896Y-14497734D01*
X13040896Y-14497734D02*
X13059944Y-14507258D01*
X13059944Y-14507258D02*
X13069467Y-14516781D01*
X13069467Y-14516781D02*
X13078991Y-14535829D01*
X13078991Y-14535829D02*
X13088515Y-14573924D01*
X13088515Y-14573924D02*
X13088515Y-14621543D01*
X13088515Y-14621543D02*
X13078991Y-14659638D01*
X13078991Y-14659638D02*
X13069467Y-14678686D01*
X13069467Y-14678686D02*
X13059944Y-14688210D01*
X13059944Y-14688210D02*
X13040896Y-14697734D01*
X13040896Y-14697734D02*
X13021848Y-14697734D01*
X13021848Y-14697734D02*
X13002801Y-14688210D01*
X13002801Y-14688210D02*
X12993277Y-14678686D01*
X12993277Y-14678686D02*
X12983753Y-14659638D01*
X12983753Y-14659638D02*
X12974229Y-14621543D01*
X12974229Y-14621543D02*
X12974229Y-14573924D01*
X12974229Y-14573924D02*
X12983753Y-14535829D01*
X12983753Y-14535829D02*
X12993277Y-14516781D01*
X12993277Y-14516781D02*
X13002801Y-14507258D01*
X13002801Y-14507258D02*
X13021848Y-14497734D01*
X13164706Y-14516781D02*
X13174229Y-14507258D01*
X13174229Y-14507258D02*
X13193277Y-14497734D01*
X13193277Y-14497734D02*
X13240896Y-14497734D01*
X13240896Y-14497734D02*
X13259944Y-14507258D01*
X13259944Y-14507258D02*
X13269467Y-14516781D01*
X13269467Y-14516781D02*
X13278991Y-14535829D01*
X13278991Y-14535829D02*
X13278991Y-14554877D01*
X13278991Y-14554877D02*
X13269467Y-14583448D01*
X13269467Y-14583448D02*
X13155182Y-14697734D01*
X13155182Y-14697734D02*
X13278991Y-14697734D01*
X13459944Y-14497734D02*
X13364706Y-14497734D01*
X13364706Y-14497734D02*
X13355182Y-14592972D01*
X13355182Y-14592972D02*
X13364706Y-14583448D01*
X13364706Y-14583448D02*
X13383753Y-14573924D01*
X13383753Y-14573924D02*
X13431372Y-14573924D01*
X13431372Y-14573924D02*
X13450420Y-14583448D01*
X13450420Y-14583448D02*
X13459944Y-14592972D01*
X13459944Y-14592972D02*
X13469467Y-14612019D01*
X13469467Y-14612019D02*
X13469467Y-14659638D01*
X13469467Y-14659638D02*
X13459944Y-14678686D01*
X13459944Y-14678686D02*
X13450420Y-14688210D01*
X13450420Y-14688210D02*
X13431372Y-14697734D01*
X13431372Y-14697734D02*
X13383753Y-14697734D01*
X13383753Y-14697734D02*
X13364706Y-14688210D01*
X13364706Y-14688210D02*
X13355182Y-14678686D01*
X13640896Y-14497734D02*
X13602801Y-14497734D01*
X13602801Y-14497734D02*
X13583753Y-14507258D01*
X13583753Y-14507258D02*
X13574229Y-14516781D01*
X13574229Y-14516781D02*
X13555182Y-14545353D01*
X13555182Y-14545353D02*
X13545658Y-14583448D01*
X13545658Y-14583448D02*
X13545658Y-14659638D01*
X13545658Y-14659638D02*
X13555182Y-14678686D01*
X13555182Y-14678686D02*
X13564706Y-14688210D01*
X13564706Y-14688210D02*
X13583753Y-14697734D01*
X13583753Y-14697734D02*
X13621848Y-14697734D01*
X13621848Y-14697734D02*
X13640896Y-14688210D01*
X13640896Y-14688210D02*
X13650420Y-14678686D01*
X13650420Y-14678686D02*
X13659944Y-14659638D01*
X13659944Y-14659638D02*
X13659944Y-14612019D01*
X13659944Y-14612019D02*
X13650420Y-14592972D01*
X13650420Y-14592972D02*
X13640896Y-14583448D01*
X13640896Y-14583448D02*
X13621848Y-14573924D01*
X13621848Y-14573924D02*
X13583753Y-14573924D01*
X13583753Y-14573924D02*
X13564706Y-14583448D01*
X13564706Y-14583448D02*
X13555182Y-14592972D01*
X13555182Y-14592972D02*
X13545658Y-14612019D01*
X13736134Y-14497734D02*
X13736134Y-14535829D01*
X13812325Y-14497734D02*
X13812325Y-14535829D01*
X14107563Y-14773924D02*
X14098039Y-14764400D01*
X14098039Y-14764400D02*
X14078991Y-14735829D01*
X14078991Y-14735829D02*
X14069468Y-14716781D01*
X14069468Y-14716781D02*
X14059944Y-14688210D01*
X14059944Y-14688210D02*
X14050420Y-14640591D01*
X14050420Y-14640591D02*
X14050420Y-14602496D01*
X14050420Y-14602496D02*
X14059944Y-14554877D01*
X14059944Y-14554877D02*
X14069468Y-14526305D01*
X14069468Y-14526305D02*
X14078991Y-14507258D01*
X14078991Y-14507258D02*
X14098039Y-14478686D01*
X14098039Y-14478686D02*
X14107563Y-14469162D01*
X14174229Y-14516781D02*
X14183753Y-14507258D01*
X14183753Y-14507258D02*
X14202801Y-14497734D01*
X14202801Y-14497734D02*
X14250420Y-14497734D01*
X14250420Y-14497734D02*
X14269468Y-14507258D01*
X14269468Y-14507258D02*
X14278991Y-14516781D01*
X14278991Y-14516781D02*
X14288515Y-14535829D01*
X14288515Y-14535829D02*
X14288515Y-14554877D01*
X14288515Y-14554877D02*
X14278991Y-14583448D01*
X14278991Y-14583448D02*
X14164706Y-14697734D01*
X14164706Y-14697734D02*
X14288515Y-14697734D01*
X14526610Y-14697734D02*
X14526610Y-14497734D01*
X14612325Y-14697734D02*
X14612325Y-14592972D01*
X14612325Y-14592972D02*
X14602801Y-14573924D01*
X14602801Y-14573924D02*
X14583753Y-14564400D01*
X14583753Y-14564400D02*
X14555182Y-14564400D01*
X14555182Y-14564400D02*
X14536134Y-14573924D01*
X14536134Y-14573924D02*
X14526610Y-14583448D01*
X14736134Y-14697734D02*
X14717087Y-14688210D01*
X14717087Y-14688210D02*
X14707563Y-14678686D01*
X14707563Y-14678686D02*
X14698039Y-14659638D01*
X14698039Y-14659638D02*
X14698039Y-14602496D01*
X14698039Y-14602496D02*
X14707563Y-14583448D01*
X14707563Y-14583448D02*
X14717087Y-14573924D01*
X14717087Y-14573924D02*
X14736134Y-14564400D01*
X14736134Y-14564400D02*
X14764706Y-14564400D01*
X14764706Y-14564400D02*
X14783753Y-14573924D01*
X14783753Y-14573924D02*
X14793277Y-14583448D01*
X14793277Y-14583448D02*
X14802801Y-14602496D01*
X14802801Y-14602496D02*
X14802801Y-14659638D01*
X14802801Y-14659638D02*
X14793277Y-14678686D01*
X14793277Y-14678686D02*
X14783753Y-14688210D01*
X14783753Y-14688210D02*
X14764706Y-14697734D01*
X14764706Y-14697734D02*
X14736134Y-14697734D01*
X14917087Y-14697734D02*
X14898039Y-14688210D01*
X14898039Y-14688210D02*
X14888515Y-14669162D01*
X14888515Y-14669162D02*
X14888515Y-14497734D01*
X15069468Y-14688210D02*
X15050420Y-14697734D01*
X15050420Y-14697734D02*
X15012325Y-14697734D01*
X15012325Y-14697734D02*
X14993277Y-14688210D01*
X14993277Y-14688210D02*
X14983753Y-14669162D01*
X14983753Y-14669162D02*
X14983753Y-14592972D01*
X14983753Y-14592972D02*
X14993277Y-14573924D01*
X14993277Y-14573924D02*
X15012325Y-14564400D01*
X15012325Y-14564400D02*
X15050420Y-14564400D01*
X15050420Y-14564400D02*
X15069468Y-14573924D01*
X15069468Y-14573924D02*
X15078991Y-14592972D01*
X15078991Y-14592972D02*
X15078991Y-14612019D01*
X15078991Y-14612019D02*
X14983753Y-14631067D01*
X15155182Y-14688210D02*
X15174230Y-14697734D01*
X15174230Y-14697734D02*
X15212325Y-14697734D01*
X15212325Y-14697734D02*
X15231372Y-14688210D01*
X15231372Y-14688210D02*
X15240896Y-14669162D01*
X15240896Y-14669162D02*
X15240896Y-14659638D01*
X15240896Y-14659638D02*
X15231372Y-14640591D01*
X15231372Y-14640591D02*
X15212325Y-14631067D01*
X15212325Y-14631067D02*
X15183753Y-14631067D01*
X15183753Y-14631067D02*
X15164706Y-14621543D01*
X15164706Y-14621543D02*
X15155182Y-14602496D01*
X15155182Y-14602496D02*
X15155182Y-14592972D01*
X15155182Y-14592972D02*
X15164706Y-14573924D01*
X15164706Y-14573924D02*
X15183753Y-14564400D01*
X15183753Y-14564400D02*
X15212325Y-14564400D01*
X15212325Y-14564400D02*
X15231372Y-14573924D01*
X15307563Y-14773924D02*
X15317087Y-14764400D01*
X15317087Y-14764400D02*
X15336134Y-14735829D01*
X15336134Y-14735829D02*
X15345658Y-14716781D01*
X15345658Y-14716781D02*
X15355182Y-14688210D01*
X15355182Y-14688210D02*
X15364706Y-14640591D01*
X15364706Y-14640591D02*
X15364706Y-14602496D01*
X15364706Y-14602496D02*
X15355182Y-14554877D01*
X15355182Y-14554877D02*
X15345658Y-14526305D01*
X15345658Y-14526305D02*
X15336134Y-14507258D01*
X15336134Y-14507258D02*
X15317087Y-14478686D01*
X15317087Y-14478686D02*
X15307563Y-14469162D01*
X15669468Y-14773924D02*
X15659944Y-14764400D01*
X15659944Y-14764400D02*
X15640896Y-14735829D01*
X15640896Y-14735829D02*
X15631372Y-14716781D01*
X15631372Y-14716781D02*
X15621849Y-14688210D01*
X15621849Y-14688210D02*
X15612325Y-14640591D01*
X15612325Y-14640591D02*
X15612325Y-14602496D01*
X15612325Y-14602496D02*
X15621849Y-14554877D01*
X15621849Y-14554877D02*
X15631372Y-14526305D01*
X15631372Y-14526305D02*
X15640896Y-14507258D01*
X15640896Y-14507258D02*
X15659944Y-14478686D01*
X15659944Y-14478686D02*
X15669468Y-14469162D01*
X15745658Y-14564400D02*
X15745658Y-14697734D01*
X15745658Y-14583448D02*
X15755182Y-14573924D01*
X15755182Y-14573924D02*
X15774230Y-14564400D01*
X15774230Y-14564400D02*
X15802801Y-14564400D01*
X15802801Y-14564400D02*
X15821849Y-14573924D01*
X15821849Y-14573924D02*
X15831372Y-14592972D01*
X15831372Y-14592972D02*
X15831372Y-14697734D01*
X15955182Y-14697734D02*
X15936134Y-14688210D01*
X15936134Y-14688210D02*
X15926611Y-14678686D01*
X15926611Y-14678686D02*
X15917087Y-14659638D01*
X15917087Y-14659638D02*
X15917087Y-14602496D01*
X15917087Y-14602496D02*
X15926611Y-14583448D01*
X15926611Y-14583448D02*
X15936134Y-14573924D01*
X15936134Y-14573924D02*
X15955182Y-14564400D01*
X15955182Y-14564400D02*
X15983753Y-14564400D01*
X15983753Y-14564400D02*
X16002801Y-14573924D01*
X16002801Y-14573924D02*
X16012325Y-14583448D01*
X16012325Y-14583448D02*
X16021849Y-14602496D01*
X16021849Y-14602496D02*
X16021849Y-14659638D01*
X16021849Y-14659638D02*
X16012325Y-14678686D01*
X16012325Y-14678686D02*
X16002801Y-14688210D01*
X16002801Y-14688210D02*
X15983753Y-14697734D01*
X15983753Y-14697734D02*
X15955182Y-14697734D01*
X16078992Y-14564400D02*
X16155182Y-14564400D01*
X16107563Y-14497734D02*
X16107563Y-14669162D01*
X16107563Y-14669162D02*
X16117087Y-14688210D01*
X16117087Y-14688210D02*
X16136134Y-14697734D01*
X16136134Y-14697734D02*
X16155182Y-14697734D01*
X16374230Y-14564400D02*
X16374230Y-14764400D01*
X16374230Y-14573924D02*
X16393277Y-14564400D01*
X16393277Y-14564400D02*
X16431373Y-14564400D01*
X16431373Y-14564400D02*
X16450420Y-14573924D01*
X16450420Y-14573924D02*
X16459944Y-14583448D01*
X16459944Y-14583448D02*
X16469468Y-14602496D01*
X16469468Y-14602496D02*
X16469468Y-14659638D01*
X16469468Y-14659638D02*
X16459944Y-14678686D01*
X16459944Y-14678686D02*
X16450420Y-14688210D01*
X16450420Y-14688210D02*
X16431373Y-14697734D01*
X16431373Y-14697734D02*
X16393277Y-14697734D01*
X16393277Y-14697734D02*
X16374230Y-14688210D01*
X16583753Y-14697734D02*
X16564706Y-14688210D01*
X16564706Y-14688210D02*
X16555182Y-14669162D01*
X16555182Y-14669162D02*
X16555182Y-14497734D01*
X16745658Y-14697734D02*
X16745658Y-14592972D01*
X16745658Y-14592972D02*
X16736134Y-14573924D01*
X16736134Y-14573924D02*
X16717087Y-14564400D01*
X16717087Y-14564400D02*
X16678992Y-14564400D01*
X16678992Y-14564400D02*
X16659944Y-14573924D01*
X16745658Y-14688210D02*
X16726611Y-14697734D01*
X16726611Y-14697734D02*
X16678992Y-14697734D01*
X16678992Y-14697734D02*
X16659944Y-14688210D01*
X16659944Y-14688210D02*
X16650420Y-14669162D01*
X16650420Y-14669162D02*
X16650420Y-14650115D01*
X16650420Y-14650115D02*
X16659944Y-14631067D01*
X16659944Y-14631067D02*
X16678992Y-14621543D01*
X16678992Y-14621543D02*
X16726611Y-14621543D01*
X16726611Y-14621543D02*
X16745658Y-14612019D01*
X16812325Y-14564400D02*
X16888515Y-14564400D01*
X16840896Y-14497734D02*
X16840896Y-14669162D01*
X16840896Y-14669162D02*
X16850420Y-14688210D01*
X16850420Y-14688210D02*
X16869468Y-14697734D01*
X16869468Y-14697734D02*
X16888515Y-14697734D01*
X17031373Y-14688210D02*
X17012325Y-14697734D01*
X17012325Y-14697734D02*
X16974230Y-14697734D01*
X16974230Y-14697734D02*
X16955182Y-14688210D01*
X16955182Y-14688210D02*
X16945658Y-14669162D01*
X16945658Y-14669162D02*
X16945658Y-14592972D01*
X16945658Y-14592972D02*
X16955182Y-14573924D01*
X16955182Y-14573924D02*
X16974230Y-14564400D01*
X16974230Y-14564400D02*
X17012325Y-14564400D01*
X17012325Y-14564400D02*
X17031373Y-14573924D01*
X17031373Y-14573924D02*
X17040896Y-14592972D01*
X17040896Y-14592972D02*
X17040896Y-14612019D01*
X17040896Y-14612019D02*
X16945658Y-14631067D01*
X17212325Y-14697734D02*
X17212325Y-14497734D01*
X17212325Y-14688210D02*
X17193277Y-14697734D01*
X17193277Y-14697734D02*
X17155182Y-14697734D01*
X17155182Y-14697734D02*
X17136135Y-14688210D01*
X17136135Y-14688210D02*
X17126611Y-14678686D01*
X17126611Y-14678686D02*
X17117087Y-14659638D01*
X17117087Y-14659638D02*
X17117087Y-14602496D01*
X17117087Y-14602496D02*
X17126611Y-14583448D01*
X17126611Y-14583448D02*
X17136135Y-14573924D01*
X17136135Y-14573924D02*
X17155182Y-14564400D01*
X17155182Y-14564400D02*
X17193277Y-14564400D01*
X17193277Y-14564400D02*
X17212325Y-14573924D01*
X17288516Y-14773924D02*
X17298039Y-14764400D01*
X17298039Y-14764400D02*
X17317087Y-14735829D01*
X17317087Y-14735829D02*
X17326611Y-14716781D01*
X17326611Y-14716781D02*
X17336135Y-14688210D01*
X17336135Y-14688210D02*
X17345658Y-14640591D01*
X17345658Y-14640591D02*
X17345658Y-14602496D01*
X17345658Y-14602496D02*
X17336135Y-14554877D01*
X17336135Y-14554877D02*
X17326611Y-14526305D01*
X17326611Y-14526305D02*
X17317087Y-14507258D01*
X17317087Y-14507258D02*
X17298039Y-14478686D01*
X17298039Y-14478686D02*
X17288516Y-14469162D01*
D13*
X10532500Y-14870250D02*
G75*
G02*
X10362320Y-14870250I-85090J0D01*
G01*
X10362320Y-14870250D02*
G75*
G02*
X10532500Y-14870250I85090J0D01*
G01*
D11*
X10898039Y-14961734D02*
X10783753Y-14961734D01*
X10840896Y-14961734D02*
X10840896Y-14761734D01*
X10840896Y-14761734D02*
X10821848Y-14790305D01*
X10821848Y-14790305D02*
X10802801Y-14809353D01*
X10802801Y-14809353D02*
X10783753Y-14818877D01*
X10983753Y-14942686D02*
X10993277Y-14952210D01*
X10993277Y-14952210D02*
X10983753Y-14961734D01*
X10983753Y-14961734D02*
X10974229Y-14952210D01*
X10974229Y-14952210D02*
X10983753Y-14942686D01*
X10983753Y-14942686D02*
X10983753Y-14961734D01*
X11059944Y-14761734D02*
X11193277Y-14761734D01*
X11193277Y-14761734D02*
X11107563Y-14961734D01*
X11307562Y-14761734D02*
X11326610Y-14761734D01*
X11326610Y-14761734D02*
X11345658Y-14771258D01*
X11345658Y-14771258D02*
X11355182Y-14780781D01*
X11355182Y-14780781D02*
X11364705Y-14799829D01*
X11364705Y-14799829D02*
X11374229Y-14837924D01*
X11374229Y-14837924D02*
X11374229Y-14885543D01*
X11374229Y-14885543D02*
X11364705Y-14923638D01*
X11364705Y-14923638D02*
X11355182Y-14942686D01*
X11355182Y-14942686D02*
X11345658Y-14952210D01*
X11345658Y-14952210D02*
X11326610Y-14961734D01*
X11326610Y-14961734D02*
X11307562Y-14961734D01*
X11307562Y-14961734D02*
X11288515Y-14952210D01*
X11288515Y-14952210D02*
X11278991Y-14942686D01*
X11278991Y-14942686D02*
X11269467Y-14923638D01*
X11269467Y-14923638D02*
X11259943Y-14885543D01*
X11259943Y-14885543D02*
X11259943Y-14837924D01*
X11259943Y-14837924D02*
X11269467Y-14799829D01*
X11269467Y-14799829D02*
X11278991Y-14780781D01*
X11278991Y-14780781D02*
X11288515Y-14771258D01*
X11288515Y-14771258D02*
X11307562Y-14761734D01*
X11450420Y-14780781D02*
X11459943Y-14771258D01*
X11459943Y-14771258D02*
X11478991Y-14761734D01*
X11478991Y-14761734D02*
X11526610Y-14761734D01*
X11526610Y-14761734D02*
X11545658Y-14771258D01*
X11545658Y-14771258D02*
X11555182Y-14780781D01*
X11555182Y-14780781D02*
X11564705Y-14799829D01*
X11564705Y-14799829D02*
X11564705Y-14818877D01*
X11564705Y-14818877D02*
X11555182Y-14847448D01*
X11555182Y-14847448D02*
X11440896Y-14961734D01*
X11440896Y-14961734D02*
X11564705Y-14961734D01*
X11650420Y-14961734D02*
X11650420Y-14828400D01*
X11650420Y-14847448D02*
X11659943Y-14837924D01*
X11659943Y-14837924D02*
X11678991Y-14828400D01*
X11678991Y-14828400D02*
X11707563Y-14828400D01*
X11707563Y-14828400D02*
X11726610Y-14837924D01*
X11726610Y-14837924D02*
X11736134Y-14856972D01*
X11736134Y-14856972D02*
X11736134Y-14961734D01*
X11736134Y-14856972D02*
X11745658Y-14837924D01*
X11745658Y-14837924D02*
X11764705Y-14828400D01*
X11764705Y-14828400D02*
X11793277Y-14828400D01*
X11793277Y-14828400D02*
X11812324Y-14837924D01*
X11812324Y-14837924D02*
X11821848Y-14856972D01*
X11821848Y-14856972D02*
X11821848Y-14961734D01*
X11917086Y-14961734D02*
X11917086Y-14828400D01*
X11917086Y-14847448D02*
X11926610Y-14837924D01*
X11926610Y-14837924D02*
X11945658Y-14828400D01*
X11945658Y-14828400D02*
X11974229Y-14828400D01*
X11974229Y-14828400D02*
X11993277Y-14837924D01*
X11993277Y-14837924D02*
X12002801Y-14856972D01*
X12002801Y-14856972D02*
X12002801Y-14961734D01*
X12002801Y-14856972D02*
X12012324Y-14837924D01*
X12012324Y-14837924D02*
X12031372Y-14828400D01*
X12031372Y-14828400D02*
X12059943Y-14828400D01*
X12059943Y-14828400D02*
X12078991Y-14837924D01*
X12078991Y-14837924D02*
X12088515Y-14856972D01*
X12088515Y-14856972D02*
X12088515Y-14961734D01*
X12478991Y-14752210D02*
X12307563Y-15009353D01*
X12736134Y-14761734D02*
X12755182Y-14761734D01*
X12755182Y-14761734D02*
X12774229Y-14771258D01*
X12774229Y-14771258D02*
X12783753Y-14780781D01*
X12783753Y-14780781D02*
X12793277Y-14799829D01*
X12793277Y-14799829D02*
X12802801Y-14837924D01*
X12802801Y-14837924D02*
X12802801Y-14885543D01*
X12802801Y-14885543D02*
X12793277Y-14923638D01*
X12793277Y-14923638D02*
X12783753Y-14942686D01*
X12783753Y-14942686D02*
X12774229Y-14952210D01*
X12774229Y-14952210D02*
X12755182Y-14961734D01*
X12755182Y-14961734D02*
X12736134Y-14961734D01*
X12736134Y-14961734D02*
X12717086Y-14952210D01*
X12717086Y-14952210D02*
X12707563Y-14942686D01*
X12707563Y-14942686D02*
X12698039Y-14923638D01*
X12698039Y-14923638D02*
X12688515Y-14885543D01*
X12688515Y-14885543D02*
X12688515Y-14837924D01*
X12688515Y-14837924D02*
X12698039Y-14799829D01*
X12698039Y-14799829D02*
X12707563Y-14780781D01*
X12707563Y-14780781D02*
X12717086Y-14771258D01*
X12717086Y-14771258D02*
X12736134Y-14761734D01*
X12888515Y-14942686D02*
X12898039Y-14952210D01*
X12898039Y-14952210D02*
X12888515Y-14961734D01*
X12888515Y-14961734D02*
X12878991Y-14952210D01*
X12878991Y-14952210D02*
X12888515Y-14942686D01*
X12888515Y-14942686D02*
X12888515Y-14961734D01*
X13021848Y-14761734D02*
X13040896Y-14761734D01*
X13040896Y-14761734D02*
X13059944Y-14771258D01*
X13059944Y-14771258D02*
X13069467Y-14780781D01*
X13069467Y-14780781D02*
X13078991Y-14799829D01*
X13078991Y-14799829D02*
X13088515Y-14837924D01*
X13088515Y-14837924D02*
X13088515Y-14885543D01*
X13088515Y-14885543D02*
X13078991Y-14923638D01*
X13078991Y-14923638D02*
X13069467Y-14942686D01*
X13069467Y-14942686D02*
X13059944Y-14952210D01*
X13059944Y-14952210D02*
X13040896Y-14961734D01*
X13040896Y-14961734D02*
X13021848Y-14961734D01*
X13021848Y-14961734D02*
X13002801Y-14952210D01*
X13002801Y-14952210D02*
X12993277Y-14942686D01*
X12993277Y-14942686D02*
X12983753Y-14923638D01*
X12983753Y-14923638D02*
X12974229Y-14885543D01*
X12974229Y-14885543D02*
X12974229Y-14837924D01*
X12974229Y-14837924D02*
X12983753Y-14799829D01*
X12983753Y-14799829D02*
X12993277Y-14780781D01*
X12993277Y-14780781D02*
X13002801Y-14771258D01*
X13002801Y-14771258D02*
X13021848Y-14761734D01*
X13259944Y-14761734D02*
X13221848Y-14761734D01*
X13221848Y-14761734D02*
X13202801Y-14771258D01*
X13202801Y-14771258D02*
X13193277Y-14780781D01*
X13193277Y-14780781D02*
X13174229Y-14809353D01*
X13174229Y-14809353D02*
X13164706Y-14847448D01*
X13164706Y-14847448D02*
X13164706Y-14923638D01*
X13164706Y-14923638D02*
X13174229Y-14942686D01*
X13174229Y-14942686D02*
X13183753Y-14952210D01*
X13183753Y-14952210D02*
X13202801Y-14961734D01*
X13202801Y-14961734D02*
X13240896Y-14961734D01*
X13240896Y-14961734D02*
X13259944Y-14952210D01*
X13259944Y-14952210D02*
X13269467Y-14942686D01*
X13269467Y-14942686D02*
X13278991Y-14923638D01*
X13278991Y-14923638D02*
X13278991Y-14876019D01*
X13278991Y-14876019D02*
X13269467Y-14856972D01*
X13269467Y-14856972D02*
X13259944Y-14847448D01*
X13259944Y-14847448D02*
X13240896Y-14837924D01*
X13240896Y-14837924D02*
X13202801Y-14837924D01*
X13202801Y-14837924D02*
X13183753Y-14847448D01*
X13183753Y-14847448D02*
X13174229Y-14856972D01*
X13174229Y-14856972D02*
X13164706Y-14876019D01*
X13345658Y-14761734D02*
X13478991Y-14761734D01*
X13478991Y-14761734D02*
X13393277Y-14961734D01*
X13593277Y-14761734D02*
X13612325Y-14761734D01*
X13612325Y-14761734D02*
X13631372Y-14771258D01*
X13631372Y-14771258D02*
X13640896Y-14780781D01*
X13640896Y-14780781D02*
X13650420Y-14799829D01*
X13650420Y-14799829D02*
X13659944Y-14837924D01*
X13659944Y-14837924D02*
X13659944Y-14885543D01*
X13659944Y-14885543D02*
X13650420Y-14923638D01*
X13650420Y-14923638D02*
X13640896Y-14942686D01*
X13640896Y-14942686D02*
X13631372Y-14952210D01*
X13631372Y-14952210D02*
X13612325Y-14961734D01*
X13612325Y-14961734D02*
X13593277Y-14961734D01*
X13593277Y-14961734D02*
X13574229Y-14952210D01*
X13574229Y-14952210D02*
X13564706Y-14942686D01*
X13564706Y-14942686D02*
X13555182Y-14923638D01*
X13555182Y-14923638D02*
X13545658Y-14885543D01*
X13545658Y-14885543D02*
X13545658Y-14837924D01*
X13545658Y-14837924D02*
X13555182Y-14799829D01*
X13555182Y-14799829D02*
X13564706Y-14780781D01*
X13564706Y-14780781D02*
X13574229Y-14771258D01*
X13574229Y-14771258D02*
X13593277Y-14761734D01*
X13736134Y-14761734D02*
X13736134Y-14799829D01*
X13812325Y-14761734D02*
X13812325Y-14799829D01*
X14107563Y-15037924D02*
X14098039Y-15028400D01*
X14098039Y-15028400D02*
X14078991Y-14999829D01*
X14078991Y-14999829D02*
X14069468Y-14980781D01*
X14069468Y-14980781D02*
X14059944Y-14952210D01*
X14059944Y-14952210D02*
X14050420Y-14904591D01*
X14050420Y-14904591D02*
X14050420Y-14866496D01*
X14050420Y-14866496D02*
X14059944Y-14818877D01*
X14059944Y-14818877D02*
X14069468Y-14790305D01*
X14069468Y-14790305D02*
X14078991Y-14771258D01*
X14078991Y-14771258D02*
X14098039Y-14742686D01*
X14098039Y-14742686D02*
X14107563Y-14733162D01*
X14164706Y-14761734D02*
X14288515Y-14761734D01*
X14288515Y-14761734D02*
X14221848Y-14837924D01*
X14221848Y-14837924D02*
X14250420Y-14837924D01*
X14250420Y-14837924D02*
X14269468Y-14847448D01*
X14269468Y-14847448D02*
X14278991Y-14856972D01*
X14278991Y-14856972D02*
X14288515Y-14876019D01*
X14288515Y-14876019D02*
X14288515Y-14923638D01*
X14288515Y-14923638D02*
X14278991Y-14942686D01*
X14278991Y-14942686D02*
X14269468Y-14952210D01*
X14269468Y-14952210D02*
X14250420Y-14961734D01*
X14250420Y-14961734D02*
X14193277Y-14961734D01*
X14193277Y-14961734D02*
X14174229Y-14952210D01*
X14174229Y-14952210D02*
X14164706Y-14942686D01*
X14459944Y-14828400D02*
X14459944Y-14961734D01*
X14412325Y-14752210D02*
X14364706Y-14895067D01*
X14364706Y-14895067D02*
X14488515Y-14895067D01*
X14717087Y-14961734D02*
X14717087Y-14761734D01*
X14802801Y-14961734D02*
X14802801Y-14856972D01*
X14802801Y-14856972D02*
X14793277Y-14837924D01*
X14793277Y-14837924D02*
X14774230Y-14828400D01*
X14774230Y-14828400D02*
X14745658Y-14828400D01*
X14745658Y-14828400D02*
X14726610Y-14837924D01*
X14726610Y-14837924D02*
X14717087Y-14847448D01*
X14926610Y-14961734D02*
X14907563Y-14952210D01*
X14907563Y-14952210D02*
X14898039Y-14942686D01*
X14898039Y-14942686D02*
X14888515Y-14923638D01*
X14888515Y-14923638D02*
X14888515Y-14866496D01*
X14888515Y-14866496D02*
X14898039Y-14847448D01*
X14898039Y-14847448D02*
X14907563Y-14837924D01*
X14907563Y-14837924D02*
X14926610Y-14828400D01*
X14926610Y-14828400D02*
X14955182Y-14828400D01*
X14955182Y-14828400D02*
X14974230Y-14837924D01*
X14974230Y-14837924D02*
X14983753Y-14847448D01*
X14983753Y-14847448D02*
X14993277Y-14866496D01*
X14993277Y-14866496D02*
X14993277Y-14923638D01*
X14993277Y-14923638D02*
X14983753Y-14942686D01*
X14983753Y-14942686D02*
X14974230Y-14952210D01*
X14974230Y-14952210D02*
X14955182Y-14961734D01*
X14955182Y-14961734D02*
X14926610Y-14961734D01*
X15107563Y-14961734D02*
X15088515Y-14952210D01*
X15088515Y-14952210D02*
X15078991Y-14933162D01*
X15078991Y-14933162D02*
X15078991Y-14761734D01*
X15259944Y-14952210D02*
X15240896Y-14961734D01*
X15240896Y-14961734D02*
X15202801Y-14961734D01*
X15202801Y-14961734D02*
X15183753Y-14952210D01*
X15183753Y-14952210D02*
X15174230Y-14933162D01*
X15174230Y-14933162D02*
X15174230Y-14856972D01*
X15174230Y-14856972D02*
X15183753Y-14837924D01*
X15183753Y-14837924D02*
X15202801Y-14828400D01*
X15202801Y-14828400D02*
X15240896Y-14828400D01*
X15240896Y-14828400D02*
X15259944Y-14837924D01*
X15259944Y-14837924D02*
X15269468Y-14856972D01*
X15269468Y-14856972D02*
X15269468Y-14876019D01*
X15269468Y-14876019D02*
X15174230Y-14895067D01*
X15345658Y-14952210D02*
X15364706Y-14961734D01*
X15364706Y-14961734D02*
X15402801Y-14961734D01*
X15402801Y-14961734D02*
X15421849Y-14952210D01*
X15421849Y-14952210D02*
X15431372Y-14933162D01*
X15431372Y-14933162D02*
X15431372Y-14923638D01*
X15431372Y-14923638D02*
X15421849Y-14904591D01*
X15421849Y-14904591D02*
X15402801Y-14895067D01*
X15402801Y-14895067D02*
X15374230Y-14895067D01*
X15374230Y-14895067D02*
X15355182Y-14885543D01*
X15355182Y-14885543D02*
X15345658Y-14866496D01*
X15345658Y-14866496D02*
X15345658Y-14856972D01*
X15345658Y-14856972D02*
X15355182Y-14837924D01*
X15355182Y-14837924D02*
X15374230Y-14828400D01*
X15374230Y-14828400D02*
X15402801Y-14828400D01*
X15402801Y-14828400D02*
X15421849Y-14837924D01*
X15498039Y-15037924D02*
X15507563Y-15028400D01*
X15507563Y-15028400D02*
X15526611Y-14999829D01*
X15526611Y-14999829D02*
X15536134Y-14980781D01*
X15536134Y-14980781D02*
X15545658Y-14952210D01*
X15545658Y-14952210D02*
X15555182Y-14904591D01*
X15555182Y-14904591D02*
X15555182Y-14866496D01*
X15555182Y-14866496D02*
X15545658Y-14818877D01*
X15545658Y-14818877D02*
X15536134Y-14790305D01*
X15536134Y-14790305D02*
X15526611Y-14771258D01*
X15526611Y-14771258D02*
X15507563Y-14742686D01*
X15507563Y-14742686D02*
X15498039Y-14733162D01*
X15859944Y-15037924D02*
X15850420Y-15028400D01*
X15850420Y-15028400D02*
X15831372Y-14999829D01*
X15831372Y-14999829D02*
X15821849Y-14980781D01*
X15821849Y-14980781D02*
X15812325Y-14952210D01*
X15812325Y-14952210D02*
X15802801Y-14904591D01*
X15802801Y-14904591D02*
X15802801Y-14866496D01*
X15802801Y-14866496D02*
X15812325Y-14818877D01*
X15812325Y-14818877D02*
X15821849Y-14790305D01*
X15821849Y-14790305D02*
X15831372Y-14771258D01*
X15831372Y-14771258D02*
X15850420Y-14742686D01*
X15850420Y-14742686D02*
X15859944Y-14733162D01*
X15936134Y-14828400D02*
X15936134Y-14961734D01*
X15936134Y-14847448D02*
X15945658Y-14837924D01*
X15945658Y-14837924D02*
X15964706Y-14828400D01*
X15964706Y-14828400D02*
X15993277Y-14828400D01*
X15993277Y-14828400D02*
X16012325Y-14837924D01*
X16012325Y-14837924D02*
X16021849Y-14856972D01*
X16021849Y-14856972D02*
X16021849Y-14961734D01*
X16145658Y-14961734D02*
X16126611Y-14952210D01*
X16126611Y-14952210D02*
X16117087Y-14942686D01*
X16117087Y-14942686D02*
X16107563Y-14923638D01*
X16107563Y-14923638D02*
X16107563Y-14866496D01*
X16107563Y-14866496D02*
X16117087Y-14847448D01*
X16117087Y-14847448D02*
X16126611Y-14837924D01*
X16126611Y-14837924D02*
X16145658Y-14828400D01*
X16145658Y-14828400D02*
X16174230Y-14828400D01*
X16174230Y-14828400D02*
X16193277Y-14837924D01*
X16193277Y-14837924D02*
X16202801Y-14847448D01*
X16202801Y-14847448D02*
X16212325Y-14866496D01*
X16212325Y-14866496D02*
X16212325Y-14923638D01*
X16212325Y-14923638D02*
X16202801Y-14942686D01*
X16202801Y-14942686D02*
X16193277Y-14952210D01*
X16193277Y-14952210D02*
X16174230Y-14961734D01*
X16174230Y-14961734D02*
X16145658Y-14961734D01*
X16269468Y-14828400D02*
X16345658Y-14828400D01*
X16298039Y-14761734D02*
X16298039Y-14933162D01*
X16298039Y-14933162D02*
X16307563Y-14952210D01*
X16307563Y-14952210D02*
X16326611Y-14961734D01*
X16326611Y-14961734D02*
X16345658Y-14961734D01*
X16564706Y-14828400D02*
X16564706Y-15028400D01*
X16564706Y-14837924D02*
X16583753Y-14828400D01*
X16583753Y-14828400D02*
X16621849Y-14828400D01*
X16621849Y-14828400D02*
X16640896Y-14837924D01*
X16640896Y-14837924D02*
X16650420Y-14847448D01*
X16650420Y-14847448D02*
X16659944Y-14866496D01*
X16659944Y-14866496D02*
X16659944Y-14923638D01*
X16659944Y-14923638D02*
X16650420Y-14942686D01*
X16650420Y-14942686D02*
X16640896Y-14952210D01*
X16640896Y-14952210D02*
X16621849Y-14961734D01*
X16621849Y-14961734D02*
X16583753Y-14961734D01*
X16583753Y-14961734D02*
X16564706Y-14952210D01*
X16774230Y-14961734D02*
X16755182Y-14952210D01*
X16755182Y-14952210D02*
X16745658Y-14933162D01*
X16745658Y-14933162D02*
X16745658Y-14761734D01*
X16936135Y-14961734D02*
X16936135Y-14856972D01*
X16936135Y-14856972D02*
X16926611Y-14837924D01*
X16926611Y-14837924D02*
X16907563Y-14828400D01*
X16907563Y-14828400D02*
X16869468Y-14828400D01*
X16869468Y-14828400D02*
X16850420Y-14837924D01*
X16936135Y-14952210D02*
X16917087Y-14961734D01*
X16917087Y-14961734D02*
X16869468Y-14961734D01*
X16869468Y-14961734D02*
X16850420Y-14952210D01*
X16850420Y-14952210D02*
X16840896Y-14933162D01*
X16840896Y-14933162D02*
X16840896Y-14914115D01*
X16840896Y-14914115D02*
X16850420Y-14895067D01*
X16850420Y-14895067D02*
X16869468Y-14885543D01*
X16869468Y-14885543D02*
X16917087Y-14885543D01*
X16917087Y-14885543D02*
X16936135Y-14876019D01*
X17002801Y-14828400D02*
X17078992Y-14828400D01*
X17031373Y-14761734D02*
X17031373Y-14933162D01*
X17031373Y-14933162D02*
X17040896Y-14952210D01*
X17040896Y-14952210D02*
X17059944Y-14961734D01*
X17059944Y-14961734D02*
X17078992Y-14961734D01*
X17221849Y-14952210D02*
X17202801Y-14961734D01*
X17202801Y-14961734D02*
X17164706Y-14961734D01*
X17164706Y-14961734D02*
X17145658Y-14952210D01*
X17145658Y-14952210D02*
X17136135Y-14933162D01*
X17136135Y-14933162D02*
X17136135Y-14856972D01*
X17136135Y-14856972D02*
X17145658Y-14837924D01*
X17145658Y-14837924D02*
X17164706Y-14828400D01*
X17164706Y-14828400D02*
X17202801Y-14828400D01*
X17202801Y-14828400D02*
X17221849Y-14837924D01*
X17221849Y-14837924D02*
X17231373Y-14856972D01*
X17231373Y-14856972D02*
X17231373Y-14876019D01*
X17231373Y-14876019D02*
X17136135Y-14895067D01*
X17402801Y-14961734D02*
X17402801Y-14761734D01*
X17402801Y-14952210D02*
X17383754Y-14961734D01*
X17383754Y-14961734D02*
X17345658Y-14961734D01*
X17345658Y-14961734D02*
X17326611Y-14952210D01*
X17326611Y-14952210D02*
X17317087Y-14942686D01*
X17317087Y-14942686D02*
X17307563Y-14923638D01*
X17307563Y-14923638D02*
X17307563Y-14866496D01*
X17307563Y-14866496D02*
X17317087Y-14847448D01*
X17317087Y-14847448D02*
X17326611Y-14837924D01*
X17326611Y-14837924D02*
X17345658Y-14828400D01*
X17345658Y-14828400D02*
X17383754Y-14828400D01*
X17383754Y-14828400D02*
X17402801Y-14837924D01*
X17478992Y-15037924D02*
X17488516Y-15028400D01*
X17488516Y-15028400D02*
X17507563Y-14999829D01*
X17507563Y-14999829D02*
X17517087Y-14980781D01*
X17517087Y-14980781D02*
X17526611Y-14952210D01*
X17526611Y-14952210D02*
X17536135Y-14904591D01*
X17536135Y-14904591D02*
X17536135Y-14866496D01*
X17536135Y-14866496D02*
X17526611Y-14818877D01*
X17526611Y-14818877D02*
X17517087Y-14790305D01*
X17517087Y-14790305D02*
X17507563Y-14771258D01*
X17507563Y-14771258D02*
X17488516Y-14742686D01*
X17488516Y-14742686D02*
X17478992Y-14733162D01*
X10432500Y-15060430D02*
X10432500Y-15260430D01*
X10332500Y-15160430D02*
X10532500Y-15160430D01*
X10774229Y-15051914D02*
X10898039Y-15051914D01*
X10898039Y-15051914D02*
X10831372Y-15128104D01*
X10831372Y-15128104D02*
X10859944Y-15128104D01*
X10859944Y-15128104D02*
X10878991Y-15137628D01*
X10878991Y-15137628D02*
X10888515Y-15147152D01*
X10888515Y-15147152D02*
X10898039Y-15166199D01*
X10898039Y-15166199D02*
X10898039Y-15213818D01*
X10898039Y-15213818D02*
X10888515Y-15232866D01*
X10888515Y-15232866D02*
X10878991Y-15242390D01*
X10878991Y-15242390D02*
X10859944Y-15251914D01*
X10859944Y-15251914D02*
X10802801Y-15251914D01*
X10802801Y-15251914D02*
X10783753Y-15242390D01*
X10783753Y-15242390D02*
X10774229Y-15232866D01*
X10983753Y-15232866D02*
X10993277Y-15242390D01*
X10993277Y-15242390D02*
X10983753Y-15251914D01*
X10983753Y-15251914D02*
X10974229Y-15242390D01*
X10974229Y-15242390D02*
X10983753Y-15232866D01*
X10983753Y-15232866D02*
X10983753Y-15251914D01*
X11117086Y-15051914D02*
X11136134Y-15051914D01*
X11136134Y-15051914D02*
X11155182Y-15061438D01*
X11155182Y-15061438D02*
X11164705Y-15070961D01*
X11164705Y-15070961D02*
X11174229Y-15090009D01*
X11174229Y-15090009D02*
X11183753Y-15128104D01*
X11183753Y-15128104D02*
X11183753Y-15175723D01*
X11183753Y-15175723D02*
X11174229Y-15213818D01*
X11174229Y-15213818D02*
X11164705Y-15232866D01*
X11164705Y-15232866D02*
X11155182Y-15242390D01*
X11155182Y-15242390D02*
X11136134Y-15251914D01*
X11136134Y-15251914D02*
X11117086Y-15251914D01*
X11117086Y-15251914D02*
X11098039Y-15242390D01*
X11098039Y-15242390D02*
X11088515Y-15232866D01*
X11088515Y-15232866D02*
X11078991Y-15213818D01*
X11078991Y-15213818D02*
X11069467Y-15175723D01*
X11069467Y-15175723D02*
X11069467Y-15128104D01*
X11069467Y-15128104D02*
X11078991Y-15090009D01*
X11078991Y-15090009D02*
X11088515Y-15070961D01*
X11088515Y-15070961D02*
X11098039Y-15061438D01*
X11098039Y-15061438D02*
X11117086Y-15051914D01*
X11355182Y-15118580D02*
X11355182Y-15251914D01*
X11307562Y-15042390D02*
X11259943Y-15185247D01*
X11259943Y-15185247D02*
X11383753Y-15185247D01*
X11488515Y-15137628D02*
X11469467Y-15128104D01*
X11469467Y-15128104D02*
X11459943Y-15118580D01*
X11459943Y-15118580D02*
X11450420Y-15099533D01*
X11450420Y-15099533D02*
X11450420Y-15090009D01*
X11450420Y-15090009D02*
X11459943Y-15070961D01*
X11459943Y-15070961D02*
X11469467Y-15061438D01*
X11469467Y-15061438D02*
X11488515Y-15051914D01*
X11488515Y-15051914D02*
X11526610Y-15051914D01*
X11526610Y-15051914D02*
X11545658Y-15061438D01*
X11545658Y-15061438D02*
X11555182Y-15070961D01*
X11555182Y-15070961D02*
X11564705Y-15090009D01*
X11564705Y-15090009D02*
X11564705Y-15099533D01*
X11564705Y-15099533D02*
X11555182Y-15118580D01*
X11555182Y-15118580D02*
X11545658Y-15128104D01*
X11545658Y-15128104D02*
X11526610Y-15137628D01*
X11526610Y-15137628D02*
X11488515Y-15137628D01*
X11488515Y-15137628D02*
X11469467Y-15147152D01*
X11469467Y-15147152D02*
X11459943Y-15156676D01*
X11459943Y-15156676D02*
X11450420Y-15175723D01*
X11450420Y-15175723D02*
X11450420Y-15213818D01*
X11450420Y-15213818D02*
X11459943Y-15232866D01*
X11459943Y-15232866D02*
X11469467Y-15242390D01*
X11469467Y-15242390D02*
X11488515Y-15251914D01*
X11488515Y-15251914D02*
X11526610Y-15251914D01*
X11526610Y-15251914D02*
X11545658Y-15242390D01*
X11545658Y-15242390D02*
X11555182Y-15232866D01*
X11555182Y-15232866D02*
X11564705Y-15213818D01*
X11564705Y-15213818D02*
X11564705Y-15175723D01*
X11564705Y-15175723D02*
X11555182Y-15156676D01*
X11555182Y-15156676D02*
X11545658Y-15147152D01*
X11545658Y-15147152D02*
X11526610Y-15137628D01*
X11650420Y-15251914D02*
X11650420Y-15118580D01*
X11650420Y-15137628D02*
X11659943Y-15128104D01*
X11659943Y-15128104D02*
X11678991Y-15118580D01*
X11678991Y-15118580D02*
X11707563Y-15118580D01*
X11707563Y-15118580D02*
X11726610Y-15128104D01*
X11726610Y-15128104D02*
X11736134Y-15147152D01*
X11736134Y-15147152D02*
X11736134Y-15251914D01*
X11736134Y-15147152D02*
X11745658Y-15128104D01*
X11745658Y-15128104D02*
X11764705Y-15118580D01*
X11764705Y-15118580D02*
X11793277Y-15118580D01*
X11793277Y-15118580D02*
X11812324Y-15128104D01*
X11812324Y-15128104D02*
X11821848Y-15147152D01*
X11821848Y-15147152D02*
X11821848Y-15251914D01*
X11917086Y-15251914D02*
X11917086Y-15118580D01*
X11917086Y-15137628D02*
X11926610Y-15128104D01*
X11926610Y-15128104D02*
X11945658Y-15118580D01*
X11945658Y-15118580D02*
X11974229Y-15118580D01*
X11974229Y-15118580D02*
X11993277Y-15128104D01*
X11993277Y-15128104D02*
X12002801Y-15147152D01*
X12002801Y-15147152D02*
X12002801Y-15251914D01*
X12002801Y-15147152D02*
X12012324Y-15128104D01*
X12012324Y-15128104D02*
X12031372Y-15118580D01*
X12031372Y-15118580D02*
X12059943Y-15118580D01*
X12059943Y-15118580D02*
X12078991Y-15128104D01*
X12078991Y-15128104D02*
X12088515Y-15147152D01*
X12088515Y-15147152D02*
X12088515Y-15251914D01*
X12478991Y-15042390D02*
X12307563Y-15299533D01*
X12736134Y-15051914D02*
X12755182Y-15051914D01*
X12755182Y-15051914D02*
X12774229Y-15061438D01*
X12774229Y-15061438D02*
X12783753Y-15070961D01*
X12783753Y-15070961D02*
X12793277Y-15090009D01*
X12793277Y-15090009D02*
X12802801Y-15128104D01*
X12802801Y-15128104D02*
X12802801Y-15175723D01*
X12802801Y-15175723D02*
X12793277Y-15213818D01*
X12793277Y-15213818D02*
X12783753Y-15232866D01*
X12783753Y-15232866D02*
X12774229Y-15242390D01*
X12774229Y-15242390D02*
X12755182Y-15251914D01*
X12755182Y-15251914D02*
X12736134Y-15251914D01*
X12736134Y-15251914D02*
X12717086Y-15242390D01*
X12717086Y-15242390D02*
X12707563Y-15232866D01*
X12707563Y-15232866D02*
X12698039Y-15213818D01*
X12698039Y-15213818D02*
X12688515Y-15175723D01*
X12688515Y-15175723D02*
X12688515Y-15128104D01*
X12688515Y-15128104D02*
X12698039Y-15090009D01*
X12698039Y-15090009D02*
X12707563Y-15070961D01*
X12707563Y-15070961D02*
X12717086Y-15061438D01*
X12717086Y-15061438D02*
X12736134Y-15051914D01*
X12888515Y-15232866D02*
X12898039Y-15242390D01*
X12898039Y-15242390D02*
X12888515Y-15251914D01*
X12888515Y-15251914D02*
X12878991Y-15242390D01*
X12878991Y-15242390D02*
X12888515Y-15232866D01*
X12888515Y-15232866D02*
X12888515Y-15251914D01*
X13088515Y-15251914D02*
X12974229Y-15251914D01*
X13031372Y-15251914D02*
X13031372Y-15051914D01*
X13031372Y-15051914D02*
X13012325Y-15080485D01*
X13012325Y-15080485D02*
X12993277Y-15099533D01*
X12993277Y-15099533D02*
X12974229Y-15109057D01*
X13164706Y-15070961D02*
X13174229Y-15061438D01*
X13174229Y-15061438D02*
X13193277Y-15051914D01*
X13193277Y-15051914D02*
X13240896Y-15051914D01*
X13240896Y-15051914D02*
X13259944Y-15061438D01*
X13259944Y-15061438D02*
X13269467Y-15070961D01*
X13269467Y-15070961D02*
X13278991Y-15090009D01*
X13278991Y-15090009D02*
X13278991Y-15109057D01*
X13278991Y-15109057D02*
X13269467Y-15137628D01*
X13269467Y-15137628D02*
X13155182Y-15251914D01*
X13155182Y-15251914D02*
X13278991Y-15251914D01*
X13402801Y-15051914D02*
X13421848Y-15051914D01*
X13421848Y-15051914D02*
X13440896Y-15061438D01*
X13440896Y-15061438D02*
X13450420Y-15070961D01*
X13450420Y-15070961D02*
X13459944Y-15090009D01*
X13459944Y-15090009D02*
X13469467Y-15128104D01*
X13469467Y-15128104D02*
X13469467Y-15175723D01*
X13469467Y-15175723D02*
X13459944Y-15213818D01*
X13459944Y-15213818D02*
X13450420Y-15232866D01*
X13450420Y-15232866D02*
X13440896Y-15242390D01*
X13440896Y-15242390D02*
X13421848Y-15251914D01*
X13421848Y-15251914D02*
X13402801Y-15251914D01*
X13402801Y-15251914D02*
X13383753Y-15242390D01*
X13383753Y-15242390D02*
X13374229Y-15232866D01*
X13374229Y-15232866D02*
X13364706Y-15213818D01*
X13364706Y-15213818D02*
X13355182Y-15175723D01*
X13355182Y-15175723D02*
X13355182Y-15128104D01*
X13355182Y-15128104D02*
X13364706Y-15090009D01*
X13364706Y-15090009D02*
X13374229Y-15070961D01*
X13374229Y-15070961D02*
X13383753Y-15061438D01*
X13383753Y-15061438D02*
X13402801Y-15051914D01*
X13593277Y-15051914D02*
X13612325Y-15051914D01*
X13612325Y-15051914D02*
X13631372Y-15061438D01*
X13631372Y-15061438D02*
X13640896Y-15070961D01*
X13640896Y-15070961D02*
X13650420Y-15090009D01*
X13650420Y-15090009D02*
X13659944Y-15128104D01*
X13659944Y-15128104D02*
X13659944Y-15175723D01*
X13659944Y-15175723D02*
X13650420Y-15213818D01*
X13650420Y-15213818D02*
X13640896Y-15232866D01*
X13640896Y-15232866D02*
X13631372Y-15242390D01*
X13631372Y-15242390D02*
X13612325Y-15251914D01*
X13612325Y-15251914D02*
X13593277Y-15251914D01*
X13593277Y-15251914D02*
X13574229Y-15242390D01*
X13574229Y-15242390D02*
X13564706Y-15232866D01*
X13564706Y-15232866D02*
X13555182Y-15213818D01*
X13555182Y-15213818D02*
X13545658Y-15175723D01*
X13545658Y-15175723D02*
X13545658Y-15128104D01*
X13545658Y-15128104D02*
X13555182Y-15090009D01*
X13555182Y-15090009D02*
X13564706Y-15070961D01*
X13564706Y-15070961D02*
X13574229Y-15061438D01*
X13574229Y-15061438D02*
X13593277Y-15051914D01*
X13736134Y-15051914D02*
X13736134Y-15090009D01*
X13812325Y-15051914D02*
X13812325Y-15090009D01*
X14107563Y-15328104D02*
X14098039Y-15318580D01*
X14098039Y-15318580D02*
X14078991Y-15290009D01*
X14078991Y-15290009D02*
X14069468Y-15270961D01*
X14069468Y-15270961D02*
X14059944Y-15242390D01*
X14059944Y-15242390D02*
X14050420Y-15194771D01*
X14050420Y-15194771D02*
X14050420Y-15156676D01*
X14050420Y-15156676D02*
X14059944Y-15109057D01*
X14059944Y-15109057D02*
X14069468Y-15080485D01*
X14069468Y-15080485D02*
X14078991Y-15061438D01*
X14078991Y-15061438D02*
X14098039Y-15032866D01*
X14098039Y-15032866D02*
X14107563Y-15023342D01*
X14269468Y-15051914D02*
X14231372Y-15051914D01*
X14231372Y-15051914D02*
X14212325Y-15061438D01*
X14212325Y-15061438D02*
X14202801Y-15070961D01*
X14202801Y-15070961D02*
X14183753Y-15099533D01*
X14183753Y-15099533D02*
X14174229Y-15137628D01*
X14174229Y-15137628D02*
X14174229Y-15213818D01*
X14174229Y-15213818D02*
X14183753Y-15232866D01*
X14183753Y-15232866D02*
X14193277Y-15242390D01*
X14193277Y-15242390D02*
X14212325Y-15251914D01*
X14212325Y-15251914D02*
X14250420Y-15251914D01*
X14250420Y-15251914D02*
X14269468Y-15242390D01*
X14269468Y-15242390D02*
X14278991Y-15232866D01*
X14278991Y-15232866D02*
X14288515Y-15213818D01*
X14288515Y-15213818D02*
X14288515Y-15166199D01*
X14288515Y-15166199D02*
X14278991Y-15147152D01*
X14278991Y-15147152D02*
X14269468Y-15137628D01*
X14269468Y-15137628D02*
X14250420Y-15128104D01*
X14250420Y-15128104D02*
X14212325Y-15128104D01*
X14212325Y-15128104D02*
X14193277Y-15137628D01*
X14193277Y-15137628D02*
X14183753Y-15147152D01*
X14183753Y-15147152D02*
X14174229Y-15166199D01*
X14526610Y-15251914D02*
X14526610Y-15051914D01*
X14612325Y-15251914D02*
X14612325Y-15147152D01*
X14612325Y-15147152D02*
X14602801Y-15128104D01*
X14602801Y-15128104D02*
X14583753Y-15118580D01*
X14583753Y-15118580D02*
X14555182Y-15118580D01*
X14555182Y-15118580D02*
X14536134Y-15128104D01*
X14536134Y-15128104D02*
X14526610Y-15137628D01*
X14736134Y-15251914D02*
X14717087Y-15242390D01*
X14717087Y-15242390D02*
X14707563Y-15232866D01*
X14707563Y-15232866D02*
X14698039Y-15213818D01*
X14698039Y-15213818D02*
X14698039Y-15156676D01*
X14698039Y-15156676D02*
X14707563Y-15137628D01*
X14707563Y-15137628D02*
X14717087Y-15128104D01*
X14717087Y-15128104D02*
X14736134Y-15118580D01*
X14736134Y-15118580D02*
X14764706Y-15118580D01*
X14764706Y-15118580D02*
X14783753Y-15128104D01*
X14783753Y-15128104D02*
X14793277Y-15137628D01*
X14793277Y-15137628D02*
X14802801Y-15156676D01*
X14802801Y-15156676D02*
X14802801Y-15213818D01*
X14802801Y-15213818D02*
X14793277Y-15232866D01*
X14793277Y-15232866D02*
X14783753Y-15242390D01*
X14783753Y-15242390D02*
X14764706Y-15251914D01*
X14764706Y-15251914D02*
X14736134Y-15251914D01*
X14917087Y-15251914D02*
X14898039Y-15242390D01*
X14898039Y-15242390D02*
X14888515Y-15223342D01*
X14888515Y-15223342D02*
X14888515Y-15051914D01*
X15069468Y-15242390D02*
X15050420Y-15251914D01*
X15050420Y-15251914D02*
X15012325Y-15251914D01*
X15012325Y-15251914D02*
X14993277Y-15242390D01*
X14993277Y-15242390D02*
X14983753Y-15223342D01*
X14983753Y-15223342D02*
X14983753Y-15147152D01*
X14983753Y-15147152D02*
X14993277Y-15128104D01*
X14993277Y-15128104D02*
X15012325Y-15118580D01*
X15012325Y-15118580D02*
X15050420Y-15118580D01*
X15050420Y-15118580D02*
X15069468Y-15128104D01*
X15069468Y-15128104D02*
X15078991Y-15147152D01*
X15078991Y-15147152D02*
X15078991Y-15166199D01*
X15078991Y-15166199D02*
X14983753Y-15185247D01*
X15155182Y-15242390D02*
X15174230Y-15251914D01*
X15174230Y-15251914D02*
X15212325Y-15251914D01*
X15212325Y-15251914D02*
X15231372Y-15242390D01*
X15231372Y-15242390D02*
X15240896Y-15223342D01*
X15240896Y-15223342D02*
X15240896Y-15213818D01*
X15240896Y-15213818D02*
X15231372Y-15194771D01*
X15231372Y-15194771D02*
X15212325Y-15185247D01*
X15212325Y-15185247D02*
X15183753Y-15185247D01*
X15183753Y-15185247D02*
X15164706Y-15175723D01*
X15164706Y-15175723D02*
X15155182Y-15156676D01*
X15155182Y-15156676D02*
X15155182Y-15147152D01*
X15155182Y-15147152D02*
X15164706Y-15128104D01*
X15164706Y-15128104D02*
X15183753Y-15118580D01*
X15183753Y-15118580D02*
X15212325Y-15118580D01*
X15212325Y-15118580D02*
X15231372Y-15128104D01*
X15307563Y-15328104D02*
X15317087Y-15318580D01*
X15317087Y-15318580D02*
X15336134Y-15290009D01*
X15336134Y-15290009D02*
X15345658Y-15270961D01*
X15345658Y-15270961D02*
X15355182Y-15242390D01*
X15355182Y-15242390D02*
X15364706Y-15194771D01*
X15364706Y-15194771D02*
X15364706Y-15156676D01*
X15364706Y-15156676D02*
X15355182Y-15109057D01*
X15355182Y-15109057D02*
X15345658Y-15080485D01*
X15345658Y-15080485D02*
X15336134Y-15061438D01*
X15336134Y-15061438D02*
X15317087Y-15032866D01*
X15317087Y-15032866D02*
X15307563Y-15023342D01*
X15669468Y-15328104D02*
X15659944Y-15318580D01*
X15659944Y-15318580D02*
X15640896Y-15290009D01*
X15640896Y-15290009D02*
X15631372Y-15270961D01*
X15631372Y-15270961D02*
X15621849Y-15242390D01*
X15621849Y-15242390D02*
X15612325Y-15194771D01*
X15612325Y-15194771D02*
X15612325Y-15156676D01*
X15612325Y-15156676D02*
X15621849Y-15109057D01*
X15621849Y-15109057D02*
X15631372Y-15080485D01*
X15631372Y-15080485D02*
X15640896Y-15061438D01*
X15640896Y-15061438D02*
X15659944Y-15032866D01*
X15659944Y-15032866D02*
X15669468Y-15023342D01*
X15745658Y-15118580D02*
X15745658Y-15251914D01*
X15745658Y-15137628D02*
X15755182Y-15128104D01*
X15755182Y-15128104D02*
X15774230Y-15118580D01*
X15774230Y-15118580D02*
X15802801Y-15118580D01*
X15802801Y-15118580D02*
X15821849Y-15128104D01*
X15821849Y-15128104D02*
X15831372Y-15147152D01*
X15831372Y-15147152D02*
X15831372Y-15251914D01*
X15955182Y-15251914D02*
X15936134Y-15242390D01*
X15936134Y-15242390D02*
X15926611Y-15232866D01*
X15926611Y-15232866D02*
X15917087Y-15213818D01*
X15917087Y-15213818D02*
X15917087Y-15156676D01*
X15917087Y-15156676D02*
X15926611Y-15137628D01*
X15926611Y-15137628D02*
X15936134Y-15128104D01*
X15936134Y-15128104D02*
X15955182Y-15118580D01*
X15955182Y-15118580D02*
X15983753Y-15118580D01*
X15983753Y-15118580D02*
X16002801Y-15128104D01*
X16002801Y-15128104D02*
X16012325Y-15137628D01*
X16012325Y-15137628D02*
X16021849Y-15156676D01*
X16021849Y-15156676D02*
X16021849Y-15213818D01*
X16021849Y-15213818D02*
X16012325Y-15232866D01*
X16012325Y-15232866D02*
X16002801Y-15242390D01*
X16002801Y-15242390D02*
X15983753Y-15251914D01*
X15983753Y-15251914D02*
X15955182Y-15251914D01*
X16078992Y-15118580D02*
X16155182Y-15118580D01*
X16107563Y-15051914D02*
X16107563Y-15223342D01*
X16107563Y-15223342D02*
X16117087Y-15242390D01*
X16117087Y-15242390D02*
X16136134Y-15251914D01*
X16136134Y-15251914D02*
X16155182Y-15251914D01*
X16374230Y-15118580D02*
X16374230Y-15318580D01*
X16374230Y-15128104D02*
X16393277Y-15118580D01*
X16393277Y-15118580D02*
X16431373Y-15118580D01*
X16431373Y-15118580D02*
X16450420Y-15128104D01*
X16450420Y-15128104D02*
X16459944Y-15137628D01*
X16459944Y-15137628D02*
X16469468Y-15156676D01*
X16469468Y-15156676D02*
X16469468Y-15213818D01*
X16469468Y-15213818D02*
X16459944Y-15232866D01*
X16459944Y-15232866D02*
X16450420Y-15242390D01*
X16450420Y-15242390D02*
X16431373Y-15251914D01*
X16431373Y-15251914D02*
X16393277Y-15251914D01*
X16393277Y-15251914D02*
X16374230Y-15242390D01*
X16583753Y-15251914D02*
X16564706Y-15242390D01*
X16564706Y-15242390D02*
X16555182Y-15223342D01*
X16555182Y-15223342D02*
X16555182Y-15051914D01*
X16745658Y-15251914D02*
X16745658Y-15147152D01*
X16745658Y-15147152D02*
X16736134Y-15128104D01*
X16736134Y-15128104D02*
X16717087Y-15118580D01*
X16717087Y-15118580D02*
X16678992Y-15118580D01*
X16678992Y-15118580D02*
X16659944Y-15128104D01*
X16745658Y-15242390D02*
X16726611Y-15251914D01*
X16726611Y-15251914D02*
X16678992Y-15251914D01*
X16678992Y-15251914D02*
X16659944Y-15242390D01*
X16659944Y-15242390D02*
X16650420Y-15223342D01*
X16650420Y-15223342D02*
X16650420Y-15204295D01*
X16650420Y-15204295D02*
X16659944Y-15185247D01*
X16659944Y-15185247D02*
X16678992Y-15175723D01*
X16678992Y-15175723D02*
X16726611Y-15175723D01*
X16726611Y-15175723D02*
X16745658Y-15166199D01*
X16812325Y-15118580D02*
X16888515Y-15118580D01*
X16840896Y-15051914D02*
X16840896Y-15223342D01*
X16840896Y-15223342D02*
X16850420Y-15242390D01*
X16850420Y-15242390D02*
X16869468Y-15251914D01*
X16869468Y-15251914D02*
X16888515Y-15251914D01*
X17031373Y-15242390D02*
X17012325Y-15251914D01*
X17012325Y-15251914D02*
X16974230Y-15251914D01*
X16974230Y-15251914D02*
X16955182Y-15242390D01*
X16955182Y-15242390D02*
X16945658Y-15223342D01*
X16945658Y-15223342D02*
X16945658Y-15147152D01*
X16945658Y-15147152D02*
X16955182Y-15128104D01*
X16955182Y-15128104D02*
X16974230Y-15118580D01*
X16974230Y-15118580D02*
X17012325Y-15118580D01*
X17012325Y-15118580D02*
X17031373Y-15128104D01*
X17031373Y-15128104D02*
X17040896Y-15147152D01*
X17040896Y-15147152D02*
X17040896Y-15166199D01*
X17040896Y-15166199D02*
X16945658Y-15185247D01*
X17212325Y-15251914D02*
X17212325Y-15051914D01*
X17212325Y-15242390D02*
X17193277Y-15251914D01*
X17193277Y-15251914D02*
X17155182Y-15251914D01*
X17155182Y-15251914D02*
X17136135Y-15242390D01*
X17136135Y-15242390D02*
X17126611Y-15232866D01*
X17126611Y-15232866D02*
X17117087Y-15213818D01*
X17117087Y-15213818D02*
X17117087Y-15156676D01*
X17117087Y-15156676D02*
X17126611Y-15137628D01*
X17126611Y-15137628D02*
X17136135Y-15128104D01*
X17136135Y-15128104D02*
X17155182Y-15118580D01*
X17155182Y-15118580D02*
X17193277Y-15118580D01*
X17193277Y-15118580D02*
X17212325Y-15128104D01*
X17288516Y-15328104D02*
X17298039Y-15318580D01*
X17298039Y-15318580D02*
X17317087Y-15290009D01*
X17317087Y-15290009D02*
X17326611Y-15270961D01*
X17326611Y-15270961D02*
X17336135Y-15242390D01*
X17336135Y-15242390D02*
X17345658Y-15194771D01*
X17345658Y-15194771D02*
X17345658Y-15156676D01*
X17345658Y-15156676D02*
X17336135Y-15109057D01*
X17336135Y-15109057D02*
X17326611Y-15080485D01*
X17326611Y-15080485D02*
X17317087Y-15061438D01*
X17317087Y-15061438D02*
X17298039Y-15032866D01*
X17298039Y-15032866D02*
X17288516Y-15023342D01*
X10503211Y-15551141D02*
X10503211Y-15409719D01*
X10361789Y-15409719D01*
X10361789Y-15551141D01*
X10503211Y-15551141D01*
X10774229Y-15371914D02*
X10898039Y-15371914D01*
X10898039Y-15371914D02*
X10831372Y-15448104D01*
X10831372Y-15448104D02*
X10859944Y-15448104D01*
X10859944Y-15448104D02*
X10878991Y-15457628D01*
X10878991Y-15457628D02*
X10888515Y-15467152D01*
X10888515Y-15467152D02*
X10898039Y-15486199D01*
X10898039Y-15486199D02*
X10898039Y-15533818D01*
X10898039Y-15533818D02*
X10888515Y-15552866D01*
X10888515Y-15552866D02*
X10878991Y-15562390D01*
X10878991Y-15562390D02*
X10859944Y-15571914D01*
X10859944Y-15571914D02*
X10802801Y-15571914D01*
X10802801Y-15571914D02*
X10783753Y-15562390D01*
X10783753Y-15562390D02*
X10774229Y-15552866D01*
X10983753Y-15552866D02*
X10993277Y-15562390D01*
X10993277Y-15562390D02*
X10983753Y-15571914D01*
X10983753Y-15571914D02*
X10974229Y-15562390D01*
X10974229Y-15562390D02*
X10983753Y-15552866D01*
X10983753Y-15552866D02*
X10983753Y-15571914D01*
X11088515Y-15571914D02*
X11126610Y-15571914D01*
X11126610Y-15571914D02*
X11145658Y-15562390D01*
X11145658Y-15562390D02*
X11155182Y-15552866D01*
X11155182Y-15552866D02*
X11174229Y-15524295D01*
X11174229Y-15524295D02*
X11183753Y-15486199D01*
X11183753Y-15486199D02*
X11183753Y-15410009D01*
X11183753Y-15410009D02*
X11174229Y-15390961D01*
X11174229Y-15390961D02*
X11164705Y-15381438D01*
X11164705Y-15381438D02*
X11145658Y-15371914D01*
X11145658Y-15371914D02*
X11107563Y-15371914D01*
X11107563Y-15371914D02*
X11088515Y-15381438D01*
X11088515Y-15381438D02*
X11078991Y-15390961D01*
X11078991Y-15390961D02*
X11069467Y-15410009D01*
X11069467Y-15410009D02*
X11069467Y-15457628D01*
X11069467Y-15457628D02*
X11078991Y-15476676D01*
X11078991Y-15476676D02*
X11088515Y-15486199D01*
X11088515Y-15486199D02*
X11107563Y-15495723D01*
X11107563Y-15495723D02*
X11145658Y-15495723D01*
X11145658Y-15495723D02*
X11164705Y-15486199D01*
X11164705Y-15486199D02*
X11174229Y-15476676D01*
X11174229Y-15476676D02*
X11183753Y-15457628D01*
X11298039Y-15457628D02*
X11278991Y-15448104D01*
X11278991Y-15448104D02*
X11269467Y-15438580D01*
X11269467Y-15438580D02*
X11259943Y-15419533D01*
X11259943Y-15419533D02*
X11259943Y-15410009D01*
X11259943Y-15410009D02*
X11269467Y-15390961D01*
X11269467Y-15390961D02*
X11278991Y-15381438D01*
X11278991Y-15381438D02*
X11298039Y-15371914D01*
X11298039Y-15371914D02*
X11336134Y-15371914D01*
X11336134Y-15371914D02*
X11355182Y-15381438D01*
X11355182Y-15381438D02*
X11364705Y-15390961D01*
X11364705Y-15390961D02*
X11374229Y-15410009D01*
X11374229Y-15410009D02*
X11374229Y-15419533D01*
X11374229Y-15419533D02*
X11364705Y-15438580D01*
X11364705Y-15438580D02*
X11355182Y-15448104D01*
X11355182Y-15448104D02*
X11336134Y-15457628D01*
X11336134Y-15457628D02*
X11298039Y-15457628D01*
X11298039Y-15457628D02*
X11278991Y-15467152D01*
X11278991Y-15467152D02*
X11269467Y-15476676D01*
X11269467Y-15476676D02*
X11259943Y-15495723D01*
X11259943Y-15495723D02*
X11259943Y-15533818D01*
X11259943Y-15533818D02*
X11269467Y-15552866D01*
X11269467Y-15552866D02*
X11278991Y-15562390D01*
X11278991Y-15562390D02*
X11298039Y-15571914D01*
X11298039Y-15571914D02*
X11336134Y-15571914D01*
X11336134Y-15571914D02*
X11355182Y-15562390D01*
X11355182Y-15562390D02*
X11364705Y-15552866D01*
X11364705Y-15552866D02*
X11374229Y-15533818D01*
X11374229Y-15533818D02*
X11374229Y-15495723D01*
X11374229Y-15495723D02*
X11364705Y-15476676D01*
X11364705Y-15476676D02*
X11355182Y-15467152D01*
X11355182Y-15467152D02*
X11336134Y-15457628D01*
X11488515Y-15457628D02*
X11469467Y-15448104D01*
X11469467Y-15448104D02*
X11459943Y-15438580D01*
X11459943Y-15438580D02*
X11450420Y-15419533D01*
X11450420Y-15419533D02*
X11450420Y-15410009D01*
X11450420Y-15410009D02*
X11459943Y-15390961D01*
X11459943Y-15390961D02*
X11469467Y-15381438D01*
X11469467Y-15381438D02*
X11488515Y-15371914D01*
X11488515Y-15371914D02*
X11526610Y-15371914D01*
X11526610Y-15371914D02*
X11545658Y-15381438D01*
X11545658Y-15381438D02*
X11555182Y-15390961D01*
X11555182Y-15390961D02*
X11564705Y-15410009D01*
X11564705Y-15410009D02*
X11564705Y-15419533D01*
X11564705Y-15419533D02*
X11555182Y-15438580D01*
X11555182Y-15438580D02*
X11545658Y-15448104D01*
X11545658Y-15448104D02*
X11526610Y-15457628D01*
X11526610Y-15457628D02*
X11488515Y-15457628D01*
X11488515Y-15457628D02*
X11469467Y-15467152D01*
X11469467Y-15467152D02*
X11459943Y-15476676D01*
X11459943Y-15476676D02*
X11450420Y-15495723D01*
X11450420Y-15495723D02*
X11450420Y-15533818D01*
X11450420Y-15533818D02*
X11459943Y-15552866D01*
X11459943Y-15552866D02*
X11469467Y-15562390D01*
X11469467Y-15562390D02*
X11488515Y-15571914D01*
X11488515Y-15571914D02*
X11526610Y-15571914D01*
X11526610Y-15571914D02*
X11545658Y-15562390D01*
X11545658Y-15562390D02*
X11555182Y-15552866D01*
X11555182Y-15552866D02*
X11564705Y-15533818D01*
X11564705Y-15533818D02*
X11564705Y-15495723D01*
X11564705Y-15495723D02*
X11555182Y-15476676D01*
X11555182Y-15476676D02*
X11545658Y-15467152D01*
X11545658Y-15467152D02*
X11526610Y-15457628D01*
X11650420Y-15571914D02*
X11650420Y-15438580D01*
X11650420Y-15457628D02*
X11659943Y-15448104D01*
X11659943Y-15448104D02*
X11678991Y-15438580D01*
X11678991Y-15438580D02*
X11707563Y-15438580D01*
X11707563Y-15438580D02*
X11726610Y-15448104D01*
X11726610Y-15448104D02*
X11736134Y-15467152D01*
X11736134Y-15467152D02*
X11736134Y-15571914D01*
X11736134Y-15467152D02*
X11745658Y-15448104D01*
X11745658Y-15448104D02*
X11764705Y-15438580D01*
X11764705Y-15438580D02*
X11793277Y-15438580D01*
X11793277Y-15438580D02*
X11812324Y-15448104D01*
X11812324Y-15448104D02*
X11821848Y-15467152D01*
X11821848Y-15467152D02*
X11821848Y-15571914D01*
X11917086Y-15571914D02*
X11917086Y-15438580D01*
X11917086Y-15457628D02*
X11926610Y-15448104D01*
X11926610Y-15448104D02*
X11945658Y-15438580D01*
X11945658Y-15438580D02*
X11974229Y-15438580D01*
X11974229Y-15438580D02*
X11993277Y-15448104D01*
X11993277Y-15448104D02*
X12002801Y-15467152D01*
X12002801Y-15467152D02*
X12002801Y-15571914D01*
X12002801Y-15467152D02*
X12012324Y-15448104D01*
X12012324Y-15448104D02*
X12031372Y-15438580D01*
X12031372Y-15438580D02*
X12059943Y-15438580D01*
X12059943Y-15438580D02*
X12078991Y-15448104D01*
X12078991Y-15448104D02*
X12088515Y-15467152D01*
X12088515Y-15467152D02*
X12088515Y-15571914D01*
X12478991Y-15362390D02*
X12307563Y-15619533D01*
X12736134Y-15371914D02*
X12755182Y-15371914D01*
X12755182Y-15371914D02*
X12774229Y-15381438D01*
X12774229Y-15381438D02*
X12783753Y-15390961D01*
X12783753Y-15390961D02*
X12793277Y-15410009D01*
X12793277Y-15410009D02*
X12802801Y-15448104D01*
X12802801Y-15448104D02*
X12802801Y-15495723D01*
X12802801Y-15495723D02*
X12793277Y-15533818D01*
X12793277Y-15533818D02*
X12783753Y-15552866D01*
X12783753Y-15552866D02*
X12774229Y-15562390D01*
X12774229Y-15562390D02*
X12755182Y-15571914D01*
X12755182Y-15571914D02*
X12736134Y-15571914D01*
X12736134Y-15571914D02*
X12717086Y-15562390D01*
X12717086Y-15562390D02*
X12707563Y-15552866D01*
X12707563Y-15552866D02*
X12698039Y-15533818D01*
X12698039Y-15533818D02*
X12688515Y-15495723D01*
X12688515Y-15495723D02*
X12688515Y-15448104D01*
X12688515Y-15448104D02*
X12698039Y-15410009D01*
X12698039Y-15410009D02*
X12707563Y-15390961D01*
X12707563Y-15390961D02*
X12717086Y-15381438D01*
X12717086Y-15381438D02*
X12736134Y-15371914D01*
X12888515Y-15552866D02*
X12898039Y-15562390D01*
X12898039Y-15562390D02*
X12888515Y-15571914D01*
X12888515Y-15571914D02*
X12878991Y-15562390D01*
X12878991Y-15562390D02*
X12888515Y-15552866D01*
X12888515Y-15552866D02*
X12888515Y-15571914D01*
X13088515Y-15571914D02*
X12974229Y-15571914D01*
X13031372Y-15571914D02*
X13031372Y-15371914D01*
X13031372Y-15371914D02*
X13012325Y-15400485D01*
X13012325Y-15400485D02*
X12993277Y-15419533D01*
X12993277Y-15419533D02*
X12974229Y-15429057D01*
X13269467Y-15371914D02*
X13174229Y-15371914D01*
X13174229Y-15371914D02*
X13164706Y-15467152D01*
X13164706Y-15467152D02*
X13174229Y-15457628D01*
X13174229Y-15457628D02*
X13193277Y-15448104D01*
X13193277Y-15448104D02*
X13240896Y-15448104D01*
X13240896Y-15448104D02*
X13259944Y-15457628D01*
X13259944Y-15457628D02*
X13269467Y-15467152D01*
X13269467Y-15467152D02*
X13278991Y-15486199D01*
X13278991Y-15486199D02*
X13278991Y-15533818D01*
X13278991Y-15533818D02*
X13269467Y-15552866D01*
X13269467Y-15552866D02*
X13259944Y-15562390D01*
X13259944Y-15562390D02*
X13240896Y-15571914D01*
X13240896Y-15571914D02*
X13193277Y-15571914D01*
X13193277Y-15571914D02*
X13174229Y-15562390D01*
X13174229Y-15562390D02*
X13164706Y-15552866D01*
X13345658Y-15371914D02*
X13478991Y-15371914D01*
X13478991Y-15371914D02*
X13393277Y-15571914D01*
X13593277Y-15371914D02*
X13612325Y-15371914D01*
X13612325Y-15371914D02*
X13631372Y-15381438D01*
X13631372Y-15381438D02*
X13640896Y-15390961D01*
X13640896Y-15390961D02*
X13650420Y-15410009D01*
X13650420Y-15410009D02*
X13659944Y-15448104D01*
X13659944Y-15448104D02*
X13659944Y-15495723D01*
X13659944Y-15495723D02*
X13650420Y-15533818D01*
X13650420Y-15533818D02*
X13640896Y-15552866D01*
X13640896Y-15552866D02*
X13631372Y-15562390D01*
X13631372Y-15562390D02*
X13612325Y-15571914D01*
X13612325Y-15571914D02*
X13593277Y-15571914D01*
X13593277Y-15571914D02*
X13574229Y-15562390D01*
X13574229Y-15562390D02*
X13564706Y-15552866D01*
X13564706Y-15552866D02*
X13555182Y-15533818D01*
X13555182Y-15533818D02*
X13545658Y-15495723D01*
X13545658Y-15495723D02*
X13545658Y-15448104D01*
X13545658Y-15448104D02*
X13555182Y-15410009D01*
X13555182Y-15410009D02*
X13564706Y-15390961D01*
X13564706Y-15390961D02*
X13574229Y-15381438D01*
X13574229Y-15381438D02*
X13593277Y-15371914D01*
X13736134Y-15371914D02*
X13736134Y-15410009D01*
X13812325Y-15371914D02*
X13812325Y-15410009D01*
X14107563Y-15648104D02*
X14098039Y-15638580D01*
X14098039Y-15638580D02*
X14078991Y-15610009D01*
X14078991Y-15610009D02*
X14069468Y-15590961D01*
X14069468Y-15590961D02*
X14059944Y-15562390D01*
X14059944Y-15562390D02*
X14050420Y-15514771D01*
X14050420Y-15514771D02*
X14050420Y-15476676D01*
X14050420Y-15476676D02*
X14059944Y-15429057D01*
X14059944Y-15429057D02*
X14069468Y-15400485D01*
X14069468Y-15400485D02*
X14078991Y-15381438D01*
X14078991Y-15381438D02*
X14098039Y-15352866D01*
X14098039Y-15352866D02*
X14107563Y-15343342D01*
X14269468Y-15371914D02*
X14231372Y-15371914D01*
X14231372Y-15371914D02*
X14212325Y-15381438D01*
X14212325Y-15381438D02*
X14202801Y-15390961D01*
X14202801Y-15390961D02*
X14183753Y-15419533D01*
X14183753Y-15419533D02*
X14174229Y-15457628D01*
X14174229Y-15457628D02*
X14174229Y-15533818D01*
X14174229Y-15533818D02*
X14183753Y-15552866D01*
X14183753Y-15552866D02*
X14193277Y-15562390D01*
X14193277Y-15562390D02*
X14212325Y-15571914D01*
X14212325Y-15571914D02*
X14250420Y-15571914D01*
X14250420Y-15571914D02*
X14269468Y-15562390D01*
X14269468Y-15562390D02*
X14278991Y-15552866D01*
X14278991Y-15552866D02*
X14288515Y-15533818D01*
X14288515Y-15533818D02*
X14288515Y-15486199D01*
X14288515Y-15486199D02*
X14278991Y-15467152D01*
X14278991Y-15467152D02*
X14269468Y-15457628D01*
X14269468Y-15457628D02*
X14250420Y-15448104D01*
X14250420Y-15448104D02*
X14212325Y-15448104D01*
X14212325Y-15448104D02*
X14193277Y-15457628D01*
X14193277Y-15457628D02*
X14183753Y-15467152D01*
X14183753Y-15467152D02*
X14174229Y-15486199D01*
X14526610Y-15571914D02*
X14526610Y-15371914D01*
X14612325Y-15571914D02*
X14612325Y-15467152D01*
X14612325Y-15467152D02*
X14602801Y-15448104D01*
X14602801Y-15448104D02*
X14583753Y-15438580D01*
X14583753Y-15438580D02*
X14555182Y-15438580D01*
X14555182Y-15438580D02*
X14536134Y-15448104D01*
X14536134Y-15448104D02*
X14526610Y-15457628D01*
X14736134Y-15571914D02*
X14717087Y-15562390D01*
X14717087Y-15562390D02*
X14707563Y-15552866D01*
X14707563Y-15552866D02*
X14698039Y-15533818D01*
X14698039Y-15533818D02*
X14698039Y-15476676D01*
X14698039Y-15476676D02*
X14707563Y-15457628D01*
X14707563Y-15457628D02*
X14717087Y-15448104D01*
X14717087Y-15448104D02*
X14736134Y-15438580D01*
X14736134Y-15438580D02*
X14764706Y-15438580D01*
X14764706Y-15438580D02*
X14783753Y-15448104D01*
X14783753Y-15448104D02*
X14793277Y-15457628D01*
X14793277Y-15457628D02*
X14802801Y-15476676D01*
X14802801Y-15476676D02*
X14802801Y-15533818D01*
X14802801Y-15533818D02*
X14793277Y-15552866D01*
X14793277Y-15552866D02*
X14783753Y-15562390D01*
X14783753Y-15562390D02*
X14764706Y-15571914D01*
X14764706Y-15571914D02*
X14736134Y-15571914D01*
X14917087Y-15571914D02*
X14898039Y-15562390D01*
X14898039Y-15562390D02*
X14888515Y-15543342D01*
X14888515Y-15543342D02*
X14888515Y-15371914D01*
X15069468Y-15562390D02*
X15050420Y-15571914D01*
X15050420Y-15571914D02*
X15012325Y-15571914D01*
X15012325Y-15571914D02*
X14993277Y-15562390D01*
X14993277Y-15562390D02*
X14983753Y-15543342D01*
X14983753Y-15543342D02*
X14983753Y-15467152D01*
X14983753Y-15467152D02*
X14993277Y-15448104D01*
X14993277Y-15448104D02*
X15012325Y-15438580D01*
X15012325Y-15438580D02*
X15050420Y-15438580D01*
X15050420Y-15438580D02*
X15069468Y-15448104D01*
X15069468Y-15448104D02*
X15078991Y-15467152D01*
X15078991Y-15467152D02*
X15078991Y-15486199D01*
X15078991Y-15486199D02*
X14983753Y-15505247D01*
X15155182Y-15562390D02*
X15174230Y-15571914D01*
X15174230Y-15571914D02*
X15212325Y-15571914D01*
X15212325Y-15571914D02*
X15231372Y-15562390D01*
X15231372Y-15562390D02*
X15240896Y-15543342D01*
X15240896Y-15543342D02*
X15240896Y-15533818D01*
X15240896Y-15533818D02*
X15231372Y-15514771D01*
X15231372Y-15514771D02*
X15212325Y-15505247D01*
X15212325Y-15505247D02*
X15183753Y-15505247D01*
X15183753Y-15505247D02*
X15164706Y-15495723D01*
X15164706Y-15495723D02*
X15155182Y-15476676D01*
X15155182Y-15476676D02*
X15155182Y-15467152D01*
X15155182Y-15467152D02*
X15164706Y-15448104D01*
X15164706Y-15448104D02*
X15183753Y-15438580D01*
X15183753Y-15438580D02*
X15212325Y-15438580D01*
X15212325Y-15438580D02*
X15231372Y-15448104D01*
X15307563Y-15648104D02*
X15317087Y-15638580D01*
X15317087Y-15638580D02*
X15336134Y-15610009D01*
X15336134Y-15610009D02*
X15345658Y-15590961D01*
X15345658Y-15590961D02*
X15355182Y-15562390D01*
X15355182Y-15562390D02*
X15364706Y-15514771D01*
X15364706Y-15514771D02*
X15364706Y-15476676D01*
X15364706Y-15476676D02*
X15355182Y-15429057D01*
X15355182Y-15429057D02*
X15345658Y-15400485D01*
X15345658Y-15400485D02*
X15336134Y-15381438D01*
X15336134Y-15381438D02*
X15317087Y-15352866D01*
X15317087Y-15352866D02*
X15307563Y-15343342D01*
X15669468Y-15648104D02*
X15659944Y-15638580D01*
X15659944Y-15638580D02*
X15640896Y-15610009D01*
X15640896Y-15610009D02*
X15631372Y-15590961D01*
X15631372Y-15590961D02*
X15621849Y-15562390D01*
X15621849Y-15562390D02*
X15612325Y-15514771D01*
X15612325Y-15514771D02*
X15612325Y-15476676D01*
X15612325Y-15476676D02*
X15621849Y-15429057D01*
X15621849Y-15429057D02*
X15631372Y-15400485D01*
X15631372Y-15400485D02*
X15640896Y-15381438D01*
X15640896Y-15381438D02*
X15659944Y-15352866D01*
X15659944Y-15352866D02*
X15669468Y-15343342D01*
X15745658Y-15438580D02*
X15745658Y-15571914D01*
X15745658Y-15457628D02*
X15755182Y-15448104D01*
X15755182Y-15448104D02*
X15774230Y-15438580D01*
X15774230Y-15438580D02*
X15802801Y-15438580D01*
X15802801Y-15438580D02*
X15821849Y-15448104D01*
X15821849Y-15448104D02*
X15831372Y-15467152D01*
X15831372Y-15467152D02*
X15831372Y-15571914D01*
X15955182Y-15571914D02*
X15936134Y-15562390D01*
X15936134Y-15562390D02*
X15926611Y-15552866D01*
X15926611Y-15552866D02*
X15917087Y-15533818D01*
X15917087Y-15533818D02*
X15917087Y-15476676D01*
X15917087Y-15476676D02*
X15926611Y-15457628D01*
X15926611Y-15457628D02*
X15936134Y-15448104D01*
X15936134Y-15448104D02*
X15955182Y-15438580D01*
X15955182Y-15438580D02*
X15983753Y-15438580D01*
X15983753Y-15438580D02*
X16002801Y-15448104D01*
X16002801Y-15448104D02*
X16012325Y-15457628D01*
X16012325Y-15457628D02*
X16021849Y-15476676D01*
X16021849Y-15476676D02*
X16021849Y-15533818D01*
X16021849Y-15533818D02*
X16012325Y-15552866D01*
X16012325Y-15552866D02*
X16002801Y-15562390D01*
X16002801Y-15562390D02*
X15983753Y-15571914D01*
X15983753Y-15571914D02*
X15955182Y-15571914D01*
X16078992Y-15438580D02*
X16155182Y-15438580D01*
X16107563Y-15371914D02*
X16107563Y-15543342D01*
X16107563Y-15543342D02*
X16117087Y-15562390D01*
X16117087Y-15562390D02*
X16136134Y-15571914D01*
X16136134Y-15571914D02*
X16155182Y-15571914D01*
X16374230Y-15438580D02*
X16374230Y-15638580D01*
X16374230Y-15448104D02*
X16393277Y-15438580D01*
X16393277Y-15438580D02*
X16431373Y-15438580D01*
X16431373Y-15438580D02*
X16450420Y-15448104D01*
X16450420Y-15448104D02*
X16459944Y-15457628D01*
X16459944Y-15457628D02*
X16469468Y-15476676D01*
X16469468Y-15476676D02*
X16469468Y-15533818D01*
X16469468Y-15533818D02*
X16459944Y-15552866D01*
X16459944Y-15552866D02*
X16450420Y-15562390D01*
X16450420Y-15562390D02*
X16431373Y-15571914D01*
X16431373Y-15571914D02*
X16393277Y-15571914D01*
X16393277Y-15571914D02*
X16374230Y-15562390D01*
X16583753Y-15571914D02*
X16564706Y-15562390D01*
X16564706Y-15562390D02*
X16555182Y-15543342D01*
X16555182Y-15543342D02*
X16555182Y-15371914D01*
X16745658Y-15571914D02*
X16745658Y-15467152D01*
X16745658Y-15467152D02*
X16736134Y-15448104D01*
X16736134Y-15448104D02*
X16717087Y-15438580D01*
X16717087Y-15438580D02*
X16678992Y-15438580D01*
X16678992Y-15438580D02*
X16659944Y-15448104D01*
X16745658Y-15562390D02*
X16726611Y-15571914D01*
X16726611Y-15571914D02*
X16678992Y-15571914D01*
X16678992Y-15571914D02*
X16659944Y-15562390D01*
X16659944Y-15562390D02*
X16650420Y-15543342D01*
X16650420Y-15543342D02*
X16650420Y-15524295D01*
X16650420Y-15524295D02*
X16659944Y-15505247D01*
X16659944Y-15505247D02*
X16678992Y-15495723D01*
X16678992Y-15495723D02*
X16726611Y-15495723D01*
X16726611Y-15495723D02*
X16745658Y-15486199D01*
X16812325Y-15438580D02*
X16888515Y-15438580D01*
X16840896Y-15371914D02*
X16840896Y-15543342D01*
X16840896Y-15543342D02*
X16850420Y-15562390D01*
X16850420Y-15562390D02*
X16869468Y-15571914D01*
X16869468Y-15571914D02*
X16888515Y-15571914D01*
X17031373Y-15562390D02*
X17012325Y-15571914D01*
X17012325Y-15571914D02*
X16974230Y-15571914D01*
X16974230Y-15571914D02*
X16955182Y-15562390D01*
X16955182Y-15562390D02*
X16945658Y-15543342D01*
X16945658Y-15543342D02*
X16945658Y-15467152D01*
X16945658Y-15467152D02*
X16955182Y-15448104D01*
X16955182Y-15448104D02*
X16974230Y-15438580D01*
X16974230Y-15438580D02*
X17012325Y-15438580D01*
X17012325Y-15438580D02*
X17031373Y-15448104D01*
X17031373Y-15448104D02*
X17040896Y-15467152D01*
X17040896Y-15467152D02*
X17040896Y-15486199D01*
X17040896Y-15486199D02*
X16945658Y-15505247D01*
X17212325Y-15571914D02*
X17212325Y-15371914D01*
X17212325Y-15562390D02*
X17193277Y-15571914D01*
X17193277Y-15571914D02*
X17155182Y-15571914D01*
X17155182Y-15571914D02*
X17136135Y-15562390D01*
X17136135Y-15562390D02*
X17126611Y-15552866D01*
X17126611Y-15552866D02*
X17117087Y-15533818D01*
X17117087Y-15533818D02*
X17117087Y-15476676D01*
X17117087Y-15476676D02*
X17126611Y-15457628D01*
X17126611Y-15457628D02*
X17136135Y-15448104D01*
X17136135Y-15448104D02*
X17155182Y-15438580D01*
X17155182Y-15438580D02*
X17193277Y-15438580D01*
X17193277Y-15438580D02*
X17212325Y-15448104D01*
X17288516Y-15648104D02*
X17298039Y-15638580D01*
X17298039Y-15638580D02*
X17317087Y-15610009D01*
X17317087Y-15610009D02*
X17326611Y-15590961D01*
X17326611Y-15590961D02*
X17336135Y-15562390D01*
X17336135Y-15562390D02*
X17345658Y-15514771D01*
X17345658Y-15514771D02*
X17345658Y-15476676D01*
X17345658Y-15476676D02*
X17336135Y-15429057D01*
X17336135Y-15429057D02*
X17326611Y-15400485D01*
X17326611Y-15400485D02*
X17317087Y-15381438D01*
X17317087Y-15381438D02*
X17298039Y-15352866D01*
X17298039Y-15352866D02*
X17288516Y-15343342D01*
M02*
