G04 #@! TF.GenerationSoftware,KiCad,Pcbnew,8.0.5*
G04 #@! TF.CreationDate,2024-11-11T15:57:41+01:00*
G04 #@! TF.ProjectId,Klawiatura analogowa,4b6c6177-6961-4747-9572-6120616e616c,rev?*
G04 #@! TF.SameCoordinates,Original*
G04 #@! TF.FileFunction,Soldermask,Bot*
G04 #@! TF.FilePolarity,Negative*
%FSLAX46Y46*%
G04 Gerber Fmt 4.6, Leading zero omitted, Abs format (unit mm)*
G04 Created by KiCad (PCBNEW 8.0.5) date 2024-11-11 15:57:41*
%MOMM*%
%LPD*%
G01*
G04 APERTURE LIST*
G04 Aperture macros list*
%AMRoundRect*
0 Rectangle with rounded corners*
0 $1 Rounding radius*
0 $2 $3 $4 $5 $6 $7 $8 $9 X,Y pos of 4 corners*
0 Add a 4 corners polygon primitive as box body*
4,1,4,$2,$3,$4,$5,$6,$7,$8,$9,$2,$3,0*
0 Add four circle primitives for the rounded corners*
1,1,$1+$1,$2,$3*
1,1,$1+$1,$4,$5*
1,1,$1+$1,$6,$7*
1,1,$1+$1,$8,$9*
0 Add four rect primitives between the rounded corners*
20,1,$1+$1,$2,$3,$4,$5,0*
20,1,$1+$1,$4,$5,$6,$7,0*
20,1,$1+$1,$6,$7,$8,$9,0*
20,1,$1+$1,$8,$9,$2,$3,0*%
G04 Aperture macros list end*
%ADD10R,1.000000X1.000000*%
%ADD11O,1.000000X1.000000*%
%ADD12RoundRect,0.135000X-0.135000X-0.185000X0.135000X-0.185000X0.135000X0.185000X-0.135000X0.185000X0*%
%ADD13RoundRect,0.135000X0.185000X-0.135000X0.185000X0.135000X-0.185000X0.135000X-0.185000X-0.135000X0*%
%ADD14RoundRect,0.140000X-0.140000X-0.170000X0.140000X-0.170000X0.140000X0.170000X-0.140000X0.170000X0*%
%ADD15RoundRect,0.200000X-0.550000X-0.200000X0.550000X-0.200000X0.550000X0.200000X-0.550000X0.200000X0*%
%ADD16C,3.500000*%
%ADD17C,1.701800*%
%ADD18RoundRect,0.150000X-0.150000X0.587500X-0.150000X-0.587500X0.150000X-0.587500X0.150000X0.587500X0*%
%ADD19C,3.048000*%
%ADD20C,3.987800*%
%ADD21RoundRect,0.140000X0.140000X0.170000X-0.140000X0.170000X-0.140000X-0.170000X0.140000X-0.170000X0*%
%ADD22RoundRect,0.140000X-0.170000X0.140000X-0.170000X-0.140000X0.170000X-0.140000X0.170000X0.140000X0*%
%ADD23RoundRect,0.140000X0.170000X-0.140000X0.170000X0.140000X-0.170000X0.140000X-0.170000X-0.140000X0*%
%ADD24RoundRect,0.150000X0.512500X0.150000X-0.512500X0.150000X-0.512500X-0.150000X0.512500X-0.150000X0*%
%ADD25RoundRect,0.150000X-0.200000X-0.150000X0.200000X-0.150000X0.200000X0.150000X-0.200000X0.150000X0*%
%ADD26RoundRect,0.175000X-0.175000X-0.325000X0.175000X-0.325000X0.175000X0.325000X-0.175000X0.325000X0*%
%ADD27RoundRect,0.135000X0.135000X0.185000X-0.135000X0.185000X-0.135000X-0.185000X0.135000X-0.185000X0*%
%ADD28R,1.750000X0.450000*%
%ADD29O,1.000000X2.100000*%
%ADD30O,1.000000X1.600000*%
%ADD31R,0.600000X1.450000*%
%ADD32R,0.300000X1.450000*%
%ADD33C,0.650000*%
%ADD34RoundRect,0.075000X0.075000X0.662500X-0.075000X0.662500X-0.075000X-0.662500X0.075000X-0.662500X0*%
%ADD35RoundRect,0.075000X0.662500X0.075000X-0.662500X0.075000X-0.662500X-0.075000X0.662500X-0.075000X0*%
%ADD36RoundRect,0.250000X-0.375000X-0.625000X0.375000X-0.625000X0.375000X0.625000X-0.375000X0.625000X0*%
%ADD37RoundRect,0.135000X-0.185000X0.135000X-0.185000X-0.135000X0.185000X-0.135000X0.185000X0.135000X0*%
%ADD38RoundRect,0.225000X-0.250000X0.225000X-0.250000X-0.225000X0.250000X-0.225000X0.250000X0.225000X0*%
G04 APERTURE END LIST*
D10*
X173200000Y-41650000D03*
D11*
X171930000Y-41650000D03*
X170660000Y-41650000D03*
X169390000Y-41650000D03*
D12*
X150690000Y-50500000D03*
X151710000Y-50500000D03*
D13*
X152250000Y-53210000D03*
X152250000Y-52190000D03*
D14*
X150720000Y-49450000D03*
X151680000Y-49450000D03*
D15*
X113550000Y-56530000D03*
X113550000Y-58310000D03*
X119550000Y-58310000D03*
X119550000Y-56530000D03*
D16*
X164200000Y-62150000D03*
D15*
X151657500Y-56519500D03*
X151657500Y-58299500D03*
X157657500Y-58299500D03*
X157657500Y-56519500D03*
D16*
X164150000Y-119050000D03*
D17*
X111477500Y-109529500D03*
X121637500Y-109529500D03*
D18*
X117507500Y-110467000D03*
X115607500Y-110467000D03*
X116557500Y-108592000D03*
D15*
X113557500Y-113669500D03*
X113557500Y-115449500D03*
X119557500Y-115449500D03*
X119557500Y-113669500D03*
X151657500Y-113669500D03*
X151657500Y-115449500D03*
X157657500Y-115449500D03*
X157657500Y-113669500D03*
D17*
X130527500Y-90479500D03*
X140687500Y-90479500D03*
D18*
X136557500Y-91417000D03*
X134657500Y-91417000D03*
X135607500Y-89542000D03*
D15*
X151657500Y-94619500D03*
X151657500Y-96399500D03*
X157657500Y-96399500D03*
X157657500Y-94619500D03*
D17*
X111480000Y-71450000D03*
X121640000Y-71450000D03*
D18*
X117510000Y-72387500D03*
X115610000Y-72387500D03*
X116560000Y-70512500D03*
D15*
X132607500Y-56519500D03*
X132607500Y-58299500D03*
X138607500Y-58299500D03*
X138607500Y-56519500D03*
D17*
X130527500Y-109529500D03*
X140687500Y-109529500D03*
D18*
X136557500Y-110467000D03*
X134657500Y-110467000D03*
X135607500Y-108592000D03*
D15*
X132617500Y-94629500D03*
X132617500Y-96409500D03*
X138617500Y-96409500D03*
X138617500Y-94629500D03*
D19*
X166722500Y-69016500D03*
X166722500Y-92892500D03*
D17*
X168627500Y-80954500D03*
X178787500Y-80954500D03*
D20*
X181962500Y-69016500D03*
X181962500Y-92892500D03*
D18*
X174657500Y-81892000D03*
X172757500Y-81892000D03*
X173707500Y-80017000D03*
D15*
X123070000Y-132708250D03*
X123070000Y-134488250D03*
X129070000Y-134488250D03*
X129070000Y-132708250D03*
D19*
X166722500Y-107116500D03*
X166722500Y-130992500D03*
D17*
X168627500Y-119054500D03*
X178787500Y-119054500D03*
D20*
X181962500Y-107116500D03*
X181962500Y-130992500D03*
D18*
X174657500Y-119992000D03*
X172757500Y-119992000D03*
X173707500Y-118117000D03*
D17*
X149577500Y-109529500D03*
X159737500Y-109529500D03*
D18*
X155607500Y-110467000D03*
X153707500Y-110467000D03*
X154657500Y-108592000D03*
D17*
X168627500Y-52379500D03*
X178787500Y-52379500D03*
D18*
X174657500Y-53317000D03*
X172757500Y-53317000D03*
X173707500Y-51442000D03*
D17*
X111451250Y-90471250D03*
X121611250Y-90471250D03*
D18*
X117481250Y-91408750D03*
X115581250Y-91408750D03*
X116531250Y-89533750D03*
D17*
X130527500Y-52379500D03*
X140687500Y-52379500D03*
D18*
X136557500Y-53317000D03*
X134657500Y-53317000D03*
X135607500Y-51442000D03*
D16*
X126000000Y-90900000D03*
D15*
X170707500Y-123194500D03*
X170707500Y-124974500D03*
X176707500Y-124974500D03*
X176707500Y-123194500D03*
X132607500Y-75569500D03*
X132607500Y-77349500D03*
X138607500Y-77349500D03*
X138607500Y-75569500D03*
X170707500Y-56519500D03*
X170707500Y-58299500D03*
X176707500Y-58299500D03*
X176707500Y-56519500D03*
D17*
X149577500Y-71429500D03*
X159737500Y-71429500D03*
D18*
X155607500Y-72367000D03*
X153707500Y-72367000D03*
X154657500Y-70492000D03*
D15*
X151682500Y-75571500D03*
X151682500Y-77351500D03*
X157682500Y-77351500D03*
X157682500Y-75571500D03*
D17*
X149577500Y-52379500D03*
X159737500Y-52379500D03*
D18*
X155607500Y-53317000D03*
X153707500Y-53317000D03*
X154657500Y-51442000D03*
D17*
X149581250Y-90457000D03*
X159741250Y-90457000D03*
D18*
X155611250Y-91394500D03*
X153711250Y-91394500D03*
X154661250Y-89519500D03*
D17*
X130537500Y-71412000D03*
X140697500Y-71412000D03*
D18*
X136567500Y-72349500D03*
X134667500Y-72349500D03*
X135617500Y-70474500D03*
D15*
X113580000Y-75590000D03*
X113580000Y-77370000D03*
X119580000Y-77370000D03*
X119580000Y-75590000D03*
X151657500Y-132719500D03*
X151657500Y-134499500D03*
X157657500Y-134499500D03*
X157657500Y-132719500D03*
D17*
X149577500Y-128579500D03*
X159737500Y-128579500D03*
D18*
X155607500Y-129517000D03*
X153707500Y-129517000D03*
X154657500Y-127642000D03*
D15*
X170707500Y-85094500D03*
X170707500Y-86874500D03*
X176707500Y-86874500D03*
X176707500Y-85094500D03*
X132607500Y-113669500D03*
X132607500Y-115449500D03*
X138607500Y-115449500D03*
X138607500Y-113669500D03*
X113557500Y-94619500D03*
X113557500Y-96399500D03*
X119557500Y-96399500D03*
X119557500Y-94619500D03*
D19*
X114132000Y-121615000D03*
D20*
X114132000Y-136855000D03*
D17*
X120990000Y-128600000D03*
X131150000Y-128600000D03*
D19*
X138008000Y-121615000D03*
D20*
X138008000Y-136855000D03*
D18*
X127020000Y-129537500D03*
X125120000Y-129537500D03*
X126070000Y-127662500D03*
D17*
X111470000Y-52390000D03*
X121630000Y-52390000D03*
D18*
X117500000Y-53327500D03*
X115600000Y-53327500D03*
X116550000Y-51452500D03*
D21*
X140395000Y-50775000D03*
X141355000Y-50775000D03*
D22*
X131400000Y-55537500D03*
X131400000Y-56497500D03*
D23*
X150775000Y-42645000D03*
X150775000Y-43605000D03*
D14*
X148855000Y-40725000D03*
X147895000Y-40725000D03*
D22*
X130950000Y-93749500D03*
X130950000Y-94709500D03*
D24*
X180900000Y-54667500D03*
X180900000Y-55617500D03*
X180900000Y-56567500D03*
X178625000Y-56567500D03*
X178625000Y-54667500D03*
D25*
X126650000Y-50050000D03*
X126650000Y-48150000D03*
X124650000Y-48150000D03*
D26*
X124650000Y-49850000D03*
D27*
X144665000Y-40725000D03*
X145685000Y-40725000D03*
D14*
X151855000Y-47725000D03*
X150895000Y-47725000D03*
D22*
X169350000Y-55570000D03*
X169350000Y-56530000D03*
X131100000Y-74570000D03*
X131100000Y-75530000D03*
D23*
X138062500Y-52817500D03*
X138062500Y-51857500D03*
X118950000Y-52820000D03*
X118950000Y-51860000D03*
X139175000Y-42645000D03*
X139175000Y-43605000D03*
D22*
X169300000Y-122337500D03*
X169300000Y-123297500D03*
D28*
X140950000Y-68075000D03*
X140950000Y-67425000D03*
X140950000Y-66775000D03*
X140950000Y-66125000D03*
X140950000Y-65475000D03*
X140950000Y-64825000D03*
X140950000Y-64175000D03*
X140950000Y-63525000D03*
X140950000Y-62875000D03*
X140950000Y-62225000D03*
X140950000Y-61575000D03*
X140950000Y-60925000D03*
X148150000Y-60925000D03*
X148150000Y-61575000D03*
X148150000Y-62225000D03*
X148150000Y-62875000D03*
X148150000Y-63525000D03*
X148150000Y-64175000D03*
X148150000Y-64825000D03*
X148150000Y-65475000D03*
X148150000Y-66125000D03*
X148150000Y-66775000D03*
X148150000Y-67425000D03*
X148150000Y-68075000D03*
D23*
X138062500Y-110017500D03*
X138062500Y-109057500D03*
X176162500Y-52797500D03*
X176162500Y-51837500D03*
D29*
X130020000Y-45105000D03*
D30*
X130020000Y-40925000D03*
D29*
X121380000Y-45105000D03*
D30*
X121380000Y-40925000D03*
D31*
X122450000Y-46020000D03*
X123250000Y-46020000D03*
D32*
X123950000Y-46020000D03*
X124950000Y-46020000D03*
X126450000Y-46020000D03*
X127450000Y-46020000D03*
D31*
X128150000Y-46020000D03*
X128950000Y-46020000D03*
X128950000Y-46020000D03*
X128150000Y-46020000D03*
D32*
X126950000Y-46020000D03*
X125950000Y-46020000D03*
X125450000Y-46020000D03*
X124450000Y-46020000D03*
D31*
X123250000Y-46020000D03*
X122450000Y-46020000D03*
D33*
X128590000Y-44575000D03*
X122810000Y-44575000D03*
D34*
X147725000Y-42362500D03*
X147225000Y-42362500D03*
X146725000Y-42362500D03*
X146225000Y-42362500D03*
X145725000Y-42362500D03*
X145225000Y-42362500D03*
X144725000Y-42362500D03*
X144225000Y-42362500D03*
X143725000Y-42362500D03*
X143225000Y-42362500D03*
X142725000Y-42362500D03*
X142225000Y-42362500D03*
D35*
X140812500Y-43775000D03*
X140812500Y-44275000D03*
X140812500Y-44775000D03*
X140812500Y-45275000D03*
X140812500Y-45775000D03*
X140812500Y-46275000D03*
X140812500Y-46775000D03*
X140812500Y-47275000D03*
X140812500Y-47775000D03*
X140812500Y-48275000D03*
X140812500Y-48775000D03*
X140812500Y-49275000D03*
D34*
X142225000Y-50687500D03*
X142725000Y-50687500D03*
X143225000Y-50687500D03*
X143725000Y-50687500D03*
X144225000Y-50687500D03*
X144725000Y-50687500D03*
X145225000Y-50687500D03*
X145725000Y-50687500D03*
X146225000Y-50687500D03*
X146725000Y-50687500D03*
X147225000Y-50687500D03*
X147725000Y-50687500D03*
D35*
X149137500Y-49275000D03*
X149137500Y-48775000D03*
X149137500Y-48275000D03*
X149137500Y-47775000D03*
X149137500Y-47275000D03*
X149137500Y-46775000D03*
X149137500Y-46275000D03*
X149137500Y-45775000D03*
X149137500Y-45275000D03*
X149137500Y-44775000D03*
X149137500Y-44275000D03*
X149137500Y-43775000D03*
D13*
X157350000Y-48150000D03*
X157350000Y-49170000D03*
X157350000Y-46260000D03*
X157350000Y-47280000D03*
D23*
X149975000Y-69010000D03*
X149975000Y-68050000D03*
X118961250Y-90901250D03*
X118961250Y-89941250D03*
D14*
X151855000Y-46125000D03*
X150895000Y-46125000D03*
D23*
X157081250Y-90879500D03*
X157081250Y-89919500D03*
D22*
X112200000Y-93620000D03*
X112200000Y-94580000D03*
D36*
X132450000Y-48400000D03*
X129650000Y-48400000D03*
D23*
X138017500Y-90909500D03*
X138017500Y-89949500D03*
D22*
X150450000Y-55570000D03*
X150450000Y-56530000D03*
X112381750Y-55548000D03*
X112381750Y-56508000D03*
D21*
X131520000Y-46550000D03*
X132480000Y-46550000D03*
D22*
X111900000Y-112737500D03*
X111900000Y-113697500D03*
D23*
X128543750Y-129080000D03*
X128543750Y-128120000D03*
X157162500Y-110017500D03*
X157162500Y-109057500D03*
D22*
X112200000Y-74520000D03*
X112200000Y-75480000D03*
D23*
X119007500Y-71712000D03*
X119007500Y-70752000D03*
X176162500Y-119517500D03*
X176162500Y-118557500D03*
X138097500Y-71794500D03*
X138097500Y-70834500D03*
D22*
X169400000Y-84220000D03*
X169400000Y-85180000D03*
D23*
X157087500Y-71799500D03*
X157087500Y-70839500D03*
X118962500Y-110017500D03*
X118962500Y-109057500D03*
D22*
X137050000Y-40520000D03*
X137050000Y-41480000D03*
X121500000Y-131720000D03*
X121500000Y-132680000D03*
D21*
X133180000Y-44750000D03*
X132220000Y-44750000D03*
D12*
X123360000Y-47750000D03*
X122340000Y-47750000D03*
D22*
X150350000Y-74570000D03*
X150350000Y-75530000D03*
D37*
X127800000Y-48910000D03*
X127800000Y-47890000D03*
D22*
X150000000Y-93719500D03*
X150000000Y-94679500D03*
D18*
X132250000Y-41400000D03*
X134150000Y-41400000D03*
X133200000Y-43275000D03*
D22*
X150150000Y-131750000D03*
X150150000Y-132710000D03*
D23*
X176062500Y-81297500D03*
X176062500Y-80337500D03*
X157062500Y-52797500D03*
X157062500Y-51837500D03*
D38*
X135750000Y-40575000D03*
X135750000Y-42125000D03*
D22*
X156250000Y-49150000D03*
X156250000Y-48190000D03*
X131050000Y-112770000D03*
X131050000Y-113730000D03*
X150150000Y-112720000D03*
X150150000Y-113680000D03*
D23*
X157162500Y-129097500D03*
X157162500Y-128137500D03*
M02*
