M48
; DRILL file {KiCad 8.0.5} date 2024-11-11T15:58:13+0100
; FORMAT={-:-/ absolute / metric / decimal}
; #@! TF.CreationDate,2024-11-11T15:58:13+01:00
; #@! TF.GenerationSoftware,Kicad,Pcbnew,8.0.5
; #@! TF.FileFunction,NonPlated,1,4,NPTH
FMAT,2
METRIC
; #@! TA.AperFunction,NonPlated,NPTH,ComponentDrill
T1C0.650
; #@! TA.AperFunction,NonPlated,NPTH,ComponentDrill
T2C1.702
; #@! TA.AperFunction,NonPlated,NPTH,ComponentDrill
T3C3.048
; #@! TA.AperFunction,NonPlated,NPTH,ComponentDrill
T4C3.988
%
G90
G05
T1
X122.81Y-44.575
X128.59Y-44.575
T2
X111.451Y-90.471
X111.47Y-52.39
X111.477Y-109.529
X111.48Y-71.45
X120.99Y-128.6
X121.611Y-90.471
X121.63Y-52.39
X121.637Y-109.529
X121.64Y-71.45
X130.528Y-52.38
X130.528Y-90.48
X130.528Y-109.529
X130.537Y-71.412
X131.15Y-128.6
X140.688Y-52.38
X140.688Y-90.48
X140.688Y-109.529
X140.697Y-71.412
X149.577Y-52.38
X149.577Y-71.429
X149.577Y-109.529
X149.577Y-128.579
X149.581Y-90.457
X159.737Y-52.38
X159.737Y-71.429
X159.737Y-109.529
X159.737Y-128.579
X159.741Y-90.457
X168.627Y-52.38
X168.627Y-80.954
X168.627Y-119.054
X178.787Y-52.38
X178.787Y-80.954
X178.787Y-119.054
T3
X114.132Y-121.615
X138.008Y-121.615
X166.722Y-69.016
X166.722Y-92.892
X166.722Y-107.117
X166.722Y-130.993
T4
X114.132Y-136.855
X138.008Y-136.855
X181.963Y-69.016
X181.963Y-92.892
X181.963Y-107.117
X181.963Y-130.993
M30
